<?xml version="1.0" encoding="utf-8"?>
<!-- Generator: Adobe Illustrator 15.1.0, SVG Export Plug-In . SVG Version: 6.00 Build 0)  -->
<!DOCTYPE svg PUBLIC "-//W3C//DTD SVG 1.1//EN" "http://www.w3.org/Graphics/SVG/1.1/DTD/svg11.dtd">
<svg version="1.1" id="Capa_1" xmlns="http://www.w3.org/2000/svg" xmlns:xlink="http://www.w3.org/1999/xlink" x="0px" y="0px"
	 width="197.56px" height="114.5px" viewBox="0 0 197.56 114.5" enable-background="new 0 0 197.56 114.5" xml:space="preserve">
<text transform="matrix(1 0 0 1 -173.0923 -421.813)"><tspan x="0" y="0" fill="#1A171B" font-family="'MyriadPro-Regular'" font-size="12">L</tspan><tspan x="5.208" y="0" fill="#1A171B" font-family="'MyriadPro-Regular'" font-size="12">OGO 3</tspan><tspan x="38.195" y="0" fill="#1A171B" font-family="'MyriadPro-Regular'" font-size="12"> </tspan><tspan x="40.259" y="0" fill="#1A171B" font-family="'MyriadPro-Regular'" font-size="12">TIN</tspan><tspan x="56.987" y="0" fill="#1A171B" font-family="'MyriadPro-Regular'" font-size="12">T</tspan><tspan x="62.051" y="0" fill="#1A171B" font-family="'MyriadPro-Regular'" font-size="12">AS </tspan><tspan x="77.855" y="0" fill="#1A171B" font-family="'MyriadPro-Regular'" font-size="12">C</tspan><tspan x="84.575" y="0" fill="#1A171B" font-family="'MyriadPro-Regular'" font-size="12">O</tspan><tspan x="92.843" y="0" fill="#1A171B" font-family="'MyriadPro-Regular'" font-size="12">L</tspan><tspan x="98.05" y="0" fill="#1A171B" font-family="'MyriadPro-Regular'" font-size="12">OR SI</tspan><tspan x="124.102" y="0" fill="#1A171B" font-family="'MyriadPro-Regular'" font-size="12">L</tspan><tspan x="129.07" y="0" fill="#1A171B" font-family="'MyriadPro-Regular'" font-size="12">VER B</tspan><tspan x="157.173" y="0" fill="#1A171B" font-family="'MyriadPro-Regular'" font-size="12">L</tspan><tspan x="162.417" y="0" fill="#1A171B" font-family="'MyriadPro-Regular'" font-size="12">UE EN SUS</tspan><tspan x="214.568" y="0" fill="#1A171B" font-family="'MyriadPro-Regular'" font-size="12"> </tspan><tspan x="216.632" y="0" fill="#1A171B" font-family="'MyriadPro-Regular'" font-size="12">TRES FOR</tspan><tspan x="263.983" y="0" fill="#1A171B" font-family="'MyriadPro-Regular'" font-size="12">M</tspan><tspan x="273.523" y="0" fill="#1A171B" font-family="'MyriadPro-Regular'" font-size="12">A</tspan><tspan x="279.955" y="0" fill="#1A171B" font-family="'MyriadPro-Regular'" font-size="12">T</tspan><tspan x="285.596" y="0" fill="#1A171B" font-family="'MyriadPro-Regular'" font-size="12">OS  </tspan></text>
<g>
	<defs>
		<path id="SVGID_1_" d="M204.96-332.633c0,0,0.002-0.004,0.006-0.012C204.962-332.637,204.96-332.633,204.96-332.633
			 M192.843-376.347c-4.24,1.107-7.234,2.439-7.234,2.439s10.838,1.788,17.134,16.374c6.077,14.077,2.392,24.483,2.224,24.889
			c0.188-0.402,4.916-10.651,3.869-23.749c-1.076-13.362-9.482-19.818-9.482-19.818s-1.444-0.513-3.514-0.513
			C194.937-376.725,193.916-376.627,192.843-376.347"/>
	</defs>
	<clipPath id="SVGID_2_">
		<use xlink:href="#SVGID_1_"  overflow="visible"/>
	</clipPath>

		<linearGradient id="SVGID_3_" gradientUnits="userSpaceOnUse" x1="-196.4395" y1="363" x2="-195.4395" y2="363" gradientTransform="matrix(23.3779 0 0 -23.3779 4777.9712 8131.5078)">
		<stop  offset="0" style="stop-color:#8C8D8E"/>
		<stop  offset="0.3248" style="stop-color:#CCCDCE"/>
		<stop  offset="0.5049" style="stop-color:#EBEBEC"/>
		<stop  offset="0.9931" style="stop-color:#B1B2B4"/>
		<stop  offset="1" style="stop-color:#B1B2B4"/>
	</linearGradient>
	<rect x="185.609" y="-376.725" clip-path="url(#SVGID_2_)" fill="url(#SVGID_3_)" width="24.273" height="44.092"/>
</g>
<g>
	<defs>
		<path id="SVGID_4_" d="M212.335-332.354c0.001,0,0.003-0.003,0.007-0.007C212.338-332.357,212.335-332.354,212.335-332.354
			 M207.042-376.277c0,0,9.167,6.377,10.694,20.949c1.479,14.102-5.156,22.688-5.394,22.967c0.252-0.272,7.807-8.485,10.765-20.584
			c3.008-12.304-3.525-21.53-3.525-21.53s-2.63-1.612-6.164-1.936c-0.855-0.079-1.693-0.108-2.466-0.108
			C208.725-376.519,207.042-376.277,207.042-376.277"/>
	</defs>
	<clipPath id="SVGID_5_">
		<use xlink:href="#SVGID_4_"  overflow="visible"/>
	</clipPath>

		<linearGradient id="SVGID_6_" gradientUnits="userSpaceOnUse" x1="-196.4395" y1="363" x2="-195.4395" y2="363" gradientTransform="matrix(16.8574 0 0 -16.8574 3518.5017 5764.8125)">
		<stop  offset="0" style="stop-color:#8C8D8E"/>
		<stop  offset="0.3248" style="stop-color:#CCCDCE"/>
		<stop  offset="0.5049" style="stop-color:#EBEBEC"/>
		<stop  offset="0.9931" style="stop-color:#B1B2B4"/>
		<stop  offset="1" style="stop-color:#B1B2B4"/>
	</linearGradient>
	<rect x="207.042" y="-376.519" clip-path="url(#SVGID_5_)" fill="url(#SVGID_6_)" width="19.073" height="44.165"/>
</g>
<g>
	<defs>
		<path id="SVGID_7_" d="M218.982-330.293c0,0,0.004-0.002,0.01-0.006C218.985-330.295,218.982-330.293,218.982-330.293
			 M230.252-350.426c-2.294,13.507-10.934,19.908-11.261,20.127c0.342-0.209,9.771-6.036,15.808-16.597
			c6.144-10.757,2.582-19.672,2.582-19.672s-1.944-2.531-5.698-4.164c-3.402-1.48-5.911-1.798-5.911-1.798
			S232.629-364.403,230.252-350.426"/>
	</defs>
	<clipPath id="SVGID_8_">
		<use xlink:href="#SVGID_7_"  overflow="visible"/>
	</clipPath>

		<linearGradient id="SVGID_9_" gradientUnits="userSpaceOnUse" x1="-196.4395" y1="363" x2="-195.4395" y2="363" gradientTransform="matrix(19.4258 0 0 -19.4258 4034.9775 6700.1406)">
		<stop  offset="0" style="stop-color:#8C8D8E"/>
		<stop  offset="0.3248" style="stop-color:#CCCDCE"/>
		<stop  offset="0.5049" style="stop-color:#EBEBEC"/>
		<stop  offset="0.9931" style="stop-color:#B1B2B4"/>
		<stop  offset="1" style="stop-color:#B1B2B4"/>
	</linearGradient>
	<rect x="218.982" y="-372.53" clip-path="url(#SVGID_8_)" fill="url(#SVGID_9_)" width="21.961" height="42.237"/>
</g>
<g>
	<defs>
		<path id="SVGID_10_" d="M224.521-325.529c0,0,0.004,0,0.012-0.002C224.525-325.53,224.521-325.529,224.521-325.529
			 M241.347-340.348c-6.266,11.518-16.417,14.712-16.814,14.817c0.408-0.091,11.138-2.526,20.07-10.253
			c9.109-7.875,8.129-15.427,8.129-15.427s-0.535-2.773-3.155-5.487c-2.299-2.385-5.947-5.023-5.982-5.07
			C243.632-361.682,247.81-352.223,241.347-340.348 M243.594-361.768C243.593-361.768,243.593-361.768,243.594-361.768
			C243.593-361.768,243.593-361.768,243.594-361.768"/>
	</defs>
	<clipPath id="SVGID_11_">
		<use xlink:href="#SVGID_10_"  overflow="visible"/>
	</clipPath>

		<linearGradient id="SVGID_12_" gradientUnits="userSpaceOnUse" x1="-196.4399" y1="363" x2="-195.4399" y2="363" gradientTransform="matrix(28.2412 0 0 -28.2412 5772.2158 9907.9141)">
		<stop  offset="0" style="stop-color:#8C8D8E"/>
		<stop  offset="0.3248" style="stop-color:#CCCDCE"/>
		<stop  offset="0.5049" style="stop-color:#EBEBEC"/>
		<stop  offset="0.9931" style="stop-color:#B1B2B4"/>
		<stop  offset="1" style="stop-color:#B1B2B4"/>
	</linearGradient>
	<rect x="224.521" y="-361.768" clip-path="url(#SVGID_11_)" fill="url(#SVGID_12_)" width="29.191" height="36.239"/>
</g>
<g>
	<defs>
		<path id="SVGID_13_" d="M165.69-222.138c-17.21,8.598-27.2,3.328-27.2,3.328s0.804,2.391,3.315,5.734
			c2.73,3.637,4.982,4.745,4.982,4.745s14.194-0.736,25.531-11.289c11.139-10.377,14.576-21.674,14.69-22.057
			C186.877-241.301,182.345-230.461,165.69-222.138 M187.009-241.677c0.003-0.006,0.004-0.011,0.004-0.011
			S187.011-241.684,187.009-241.677"/>
	</defs>
	<clipPath id="SVGID_14_">
		<use xlink:href="#SVGID_13_"  overflow="visible"/>
	</clipPath>

		<linearGradient id="SVGID_15_" gradientUnits="userSpaceOnUse" x1="-196.4399" y1="363" x2="-195.4399" y2="363" gradientTransform="matrix(48.5225 0 0 -48.5225 9670.2324 17388.6484)">
		<stop  offset="0" style="stop-color:#FFFFFF"/>
		<stop  offset="0.1694" style="stop-color:#FCFDFD"/>
		<stop  offset="0.3134" style="stop-color:#F1F5F7"/>
		<stop  offset="0.4483" style="stop-color:#E0E8ED"/>
		<stop  offset="0.5776" style="stop-color:#C7D6DF"/>
		<stop  offset="0.703" style="stop-color:#A7BFCD"/>
		<stop  offset="0.8252" style="stop-color:#80A2B6"/>
		<stop  offset="0.9429" style="stop-color:#52819C"/>
		<stop  offset="1" style="stop-color:#396F8E"/>
	</linearGradient>
	<rect x="138.49" y="-241.688" clip-path="url(#SVGID_14_)" fill="url(#SVGID_15_)" width="48.523" height="33.357"/>
</g>
<g>
	<defs>
		<path id="SVGID_16_" d="M165.69-222.138c-17.21,8.598-27.2,3.328-27.2,3.328s0.804,2.391,3.315,5.734
			c2.73,3.637,4.982,4.745,4.982,4.745s14.194-0.736,25.531-11.289c11.139-10.377,14.576-21.674,14.69-22.057
			C186.877-241.301,182.345-230.461,165.69-222.138 M187.013-241.687c-0.001,0.002-0.002,0.005-0.004,0.01
			C187.011-241.681,187.012-241.685,187.013-241.687z"/>
	</defs>
	<clipPath id="SVGID_17_">
		<use xlink:href="#SVGID_16_"  overflow="visible"/>
	</clipPath>

		<linearGradient id="SVGID_18_" gradientUnits="userSpaceOnUse" x1="-196.4399" y1="362.999" x2="-195.4399" y2="362.999" gradientTransform="matrix(0 -94.6251 -94.6251 0 34511.5547 -18769.6211)">
		<stop  offset="0" style="stop-color:#FFFFFF"/>
		<stop  offset="0.1694" style="stop-color:#FCFDFD"/>
		<stop  offset="0.3134" style="stop-color:#F1F5F7"/>
		<stop  offset="0.4483" style="stop-color:#E0E8ED"/>
		<stop  offset="0.5776" style="stop-color:#C7D6DF"/>
		<stop  offset="0.703" style="stop-color:#A7BFCD"/>
		<stop  offset="0.8252" style="stop-color:#80A2B6"/>
		<stop  offset="0.9429" style="stop-color:#52819C"/>
		<stop  offset="1" style="stop-color:#396F8E"/>
	</linearGradient>
	<rect x="138.49" y="-241.687" clip-path="url(#SVGID_17_)" fill="url(#SVGID_18_)" width="48.523" height="33.356"/>
</g>
<g>
	<defs>
		<path id="SVGID_19_" d="M176.954-210.741c-13.65,11.246-24.035,8.404-24.035,8.404s2.645,2.941,5.48,5.407
			c2.875,2.503,5.221,2.875,5.221,2.875s11.949-3.192,19.869-15.35c7.766-11.932,8.409-23.468,8.431-23.9
			C191.878-232.879,190.143-221.606,176.954-210.741 M191.919-233.305c0.001-0.01,0.001-0.013,0.001-0.013
			S191.92-233.315,191.919-233.305"/>
	</defs>
	<clipPath id="SVGID_20_">
		<use xlink:href="#SVGID_19_"  overflow="visible"/>
	</clipPath>

		<linearGradient id="SVGID_21_" gradientUnits="userSpaceOnUse" x1="-196.4399" y1="363" x2="-195.4399" y2="363" gradientTransform="matrix(39.002 0 0 -39.002 7814.459 13944.0156)">
		<stop  offset="0" style="stop-color:#FFFFFF"/>
		<stop  offset="0.1694" style="stop-color:#FCFDFD"/>
		<stop  offset="0.3134" style="stop-color:#F1F5F7"/>
		<stop  offset="0.4483" style="stop-color:#E0E8ED"/>
		<stop  offset="0.5776" style="stop-color:#C7D6DF"/>
		<stop  offset="0.703" style="stop-color:#A7BFCD"/>
		<stop  offset="0.8252" style="stop-color:#80A2B6"/>
		<stop  offset="0.9429" style="stop-color:#52819C"/>
		<stop  offset="1" style="stop-color:#396F8E"/>
	</linearGradient>
	<rect x="152.918" y="-233.318" clip-path="url(#SVGID_20_)" fill="url(#SVGID_21_)" width="39.002" height="39.263"/>
</g>
<g>
	<defs>
		<path id="SVGID_22_" d="M176.954-210.741c-13.65,11.246-24.035,8.404-24.035,8.404s2.645,2.941,5.48,5.407
			c2.875,2.503,5.221,2.875,5.221,2.875s11.949-3.192,19.869-15.35c7.766-11.932,8.409-23.468,8.431-23.9
			C191.878-232.879,190.143-221.606,176.954-210.741 M191.919-233.305c0.001-0.01,0.001-0.013,0.001-0.013
			S191.92-233.315,191.919-233.305"/>
	</defs>
	<clipPath id="SVGID_23_">
		<use xlink:href="#SVGID_22_"  overflow="visible"/>
	</clipPath>

		<linearGradient id="SVGID_24_" gradientUnits="userSpaceOnUse" x1="-196.4399" y1="363" x2="-195.4399" y2="363" gradientTransform="matrix(0 -94.7278 -94.7278 0 34558.6133 -18789.9785)">
		<stop  offset="0" style="stop-color:#FFFFFF"/>
		<stop  offset="0.1694" style="stop-color:#FCFDFD"/>
		<stop  offset="0.3134" style="stop-color:#F1F5F7"/>
		<stop  offset="0.4483" style="stop-color:#E0E8ED"/>
		<stop  offset="0.5776" style="stop-color:#C7D6DF"/>
		<stop  offset="0.703" style="stop-color:#A7BFCD"/>
		<stop  offset="0.8252" style="stop-color:#80A2B6"/>
		<stop  offset="0.9429" style="stop-color:#52819C"/>
		<stop  offset="1" style="stop-color:#396F8E"/>
	</linearGradient>
	<rect x="152.918" y="-233.318" clip-path="url(#SVGID_23_)" fill="url(#SVGID_24_)" width="39.002" height="39.263"/>
</g>
<g>
	<defs>
		<path id="SVGID_25_" d="M189.08-203.2c-10.639,13.26-21.024,11.793-21.024,11.793s2.742,2.195,6.345,4.023
			c4.187,2.119,6.408,1.938,6.408,1.938s9.753-4.411,14.759-17.577c4.918-12.948,3.122-24.284,3.062-24.664
			C198.673-227.31,199.383-216.041,189.08-203.2 M198.628-227.687c0-0.006-0.001-0.008-0.001-0.01
			C198.627-227.697,198.627-227.693,198.628-227.687"/>
	</defs>
	<clipPath id="SVGID_26_">
		<use xlink:href="#SVGID_25_"  overflow="visible"/>
	</clipPath>

		<linearGradient id="SVGID_27_" gradientUnits="userSpaceOnUse" x1="-196.4399" y1="362.9961" x2="-195.4399" y2="362.9961" gradientTransform="matrix(30.9414 0 0 -30.9414 6246.1841 11025.1563)">
		<stop  offset="0" style="stop-color:#FFFFFF"/>
		<stop  offset="0.1694" style="stop-color:#FCFDFD"/>
		<stop  offset="0.3134" style="stop-color:#F1F5F7"/>
		<stop  offset="0.4483" style="stop-color:#E0E8ED"/>
		<stop  offset="0.5776" style="stop-color:#C7D6DF"/>
		<stop  offset="0.703" style="stop-color:#A7BFCD"/>
		<stop  offset="0.8252" style="stop-color:#80A2B6"/>
		<stop  offset="0.9429" style="stop-color:#52819C"/>
		<stop  offset="1" style="stop-color:#396F8E"/>
	</linearGradient>
	<rect x="168.055" y="-227.697" clip-path="url(#SVGID_26_)" fill="url(#SVGID_27_)" width="32.43" height="42.432"/>
</g>
<g>
	<defs>
		<path id="SVGID_28_" d="M189.08-203.2c-10.639,13.26-21.024,11.793-21.024,11.793s2.742,2.195,6.345,4.023
			c4.187,2.119,6.408,1.938,6.408,1.938s9.753-4.411,14.759-17.577c4.918-12.948,3.122-24.284,3.062-24.664
			C198.673-227.31,199.383-216.041,189.08-203.2 M198.628-227.687c0-0.006-0.001-0.008-0.001-0.01
			C198.627-227.697,198.627-227.693,198.628-227.687"/>
	</defs>
	<clipPath id="SVGID_29_">
		<use xlink:href="#SVGID_28_"  overflow="visible"/>
	</clipPath>

		<linearGradient id="SVGID_30_" gradientUnits="userSpaceOnUse" x1="-196.4399" y1="362.998" x2="-195.4399" y2="362.998" gradientTransform="matrix(0 -94.5782 -94.5782 0 34516.0547 -18759.3379)">
		<stop  offset="0" style="stop-color:#FFFFFF"/>
		<stop  offset="0.1694" style="stop-color:#FCFDFD"/>
		<stop  offset="0.3134" style="stop-color:#F1F5F7"/>
		<stop  offset="0.4483" style="stop-color:#E0E8ED"/>
		<stop  offset="0.5776" style="stop-color:#C7D6DF"/>
		<stop  offset="0.703" style="stop-color:#A7BFCD"/>
		<stop  offset="0.8252" style="stop-color:#80A2B6"/>
		<stop  offset="0.9429" style="stop-color:#52819C"/>
		<stop  offset="1" style="stop-color:#396F8E"/>
	</linearGradient>
	<rect x="168.055" y="-227.697" clip-path="url(#SVGID_29_)" fill="url(#SVGID_30_)" width="32.43" height="42.432"/>
</g>
<g>
	<defs>
		<path id="SVGID_31_" d="M203.967-199.972c-6.297,14.589-17.135,16.375-17.135,16.375s2.994,1.332,7.232,2.44
			c3.533,0.922,6.51-0.137,6.51-0.137s8.408-6.455,9.483-19.818c1.048-13.098-3.68-23.347-3.868-23.749
			C206.358-224.456,210.044-214.048,203.967-199.972 M206.19-224.861c-0.004-0.008-0.005-0.013-0.005-0.013
			S206.186-224.869,206.19-224.861"/>
	</defs>
	<clipPath id="SVGID_32_">
		<use xlink:href="#SVGID_31_"  overflow="visible"/>
	</clipPath>

		<linearGradient id="SVGID_33_" gradientUnits="userSpaceOnUse" x1="-196.4404" y1="362.9883" x2="-195.4404" y2="362.9883" gradientTransform="matrix(23.377 0 0 -23.377 4779.0068 8283)">
		<stop  offset="0" style="stop-color:#FFFFFF"/>
		<stop  offset="0.1694" style="stop-color:#FCFDFD"/>
		<stop  offset="0.3134" style="stop-color:#F1F5F7"/>
		<stop  offset="0.4483" style="stop-color:#E0E8ED"/>
		<stop  offset="0.5776" style="stop-color:#C7D6DF"/>
		<stop  offset="0.703" style="stop-color:#A7BFCD"/>
		<stop  offset="0.8252" style="stop-color:#80A2B6"/>
		<stop  offset="0.9429" style="stop-color:#52819C"/>
		<stop  offset="1" style="stop-color:#396F8E"/>
	</linearGradient>
	<rect x="186.833" y="-224.874" clip-path="url(#SVGID_32_)" fill="url(#SVGID_33_)" width="24.273" height="44.639"/>
</g>
<g>
	<defs>
		<path id="SVGID_34_" d="M203.967-199.972c-6.297,14.589-17.135,16.375-17.135,16.375s2.994,1.332,7.232,2.44
			c3.533,0.922,6.51-0.137,6.51-0.137s8.408-6.455,9.483-19.818c1.048-13.098-3.68-23.347-3.868-23.749
			C206.358-224.456,210.044-214.048,203.967-199.972 M206.185-224.873c0.001,0.002,0.002,0.006,0.005,0.012
			C206.187-224.867,206.186-224.871,206.185-224.873z"/>
	</defs>
	<clipPath id="SVGID_35_">
		<use xlink:href="#SVGID_34_"  overflow="visible"/>
	</clipPath>

		<linearGradient id="SVGID_36_" gradientUnits="userSpaceOnUse" x1="-196.4399" y1="363.001" x2="-195.4399" y2="363.001" gradientTransform="matrix(0 -94.7642 -94.7642 0 34598.4492 -18796.5684)">
		<stop  offset="0" style="stop-color:#FFFFFF"/>
		<stop  offset="0.1694" style="stop-color:#FCFDFD"/>
		<stop  offset="0.3134" style="stop-color:#F1F5F7"/>
		<stop  offset="0.4483" style="stop-color:#E0E8ED"/>
		<stop  offset="0.5776" style="stop-color:#C7D6DF"/>
		<stop  offset="0.703" style="stop-color:#A7BFCD"/>
		<stop  offset="0.8252" style="stop-color:#80A2B6"/>
		<stop  offset="0.9429" style="stop-color:#52819C"/>
		<stop  offset="1" style="stop-color:#396F8E"/>
	</linearGradient>
	<rect x="186.833" y="-224.873" clip-path="url(#SVGID_35_)" fill="url(#SVGID_36_)" width="24.273" height="44.638"/>
</g>
<g>
	<defs>
		<path id="SVGID_37_" d="M218.96-202.178c-1.528,14.57-10.696,20.949-10.696,20.949s3.055,0.437,6.376,0.134
			c3.536-0.325,6.165-1.936,6.165-1.936s6.534-9.227,3.526-21.532c-2.97-12.131-10.561-20.361-10.769-20.584
			C213.76-224.918,220.443-216.323,218.96-202.178 M213.563-225.146c-0.003-0.004-0.004-0.004-0.004-0.004
			S213.56-225.15,213.563-225.146"/>
	</defs>
	<clipPath id="SVGID_38_">
		<use xlink:href="#SVGID_37_"  overflow="visible"/>
	</clipPath>

		<linearGradient id="SVGID_39_" gradientUnits="userSpaceOnUse" x1="-196.4399" y1="362.9941" x2="-195.4399" y2="362.9941" gradientTransform="matrix(16.8584 0 0 -16.8584 3519.9348 5916.5234)">
		<stop  offset="0" style="stop-color:#FFFFFF"/>
		<stop  offset="0.1694" style="stop-color:#FCFDFD"/>
		<stop  offset="0.3134" style="stop-color:#F1F5F7"/>
		<stop  offset="0.4483" style="stop-color:#E0E8ED"/>
		<stop  offset="0.5776" style="stop-color:#C7D6DF"/>
		<stop  offset="0.703" style="stop-color:#A7BFCD"/>
		<stop  offset="0.8252" style="stop-color:#80A2B6"/>
		<stop  offset="0.9429" style="stop-color:#52819C"/>
		<stop  offset="1" style="stop-color:#396F8E"/>
	</linearGradient>
	<rect x="208.264" y="-225.15" clip-path="url(#SVGID_38_)" fill="url(#SVGID_39_)" width="19.075" height="44.358"/>
</g>
<g>
	<defs>
		<path id="SVGID_40_" d="M218.96-202.178c-1.528,14.57-10.696,20.949-10.696,20.949s3.055,0.437,6.376,0.134
			c3.536-0.325,6.165-1.936,6.165-1.936s6.534-9.227,3.526-21.532c-2.97-12.131-10.561-20.361-10.769-20.584
			C213.76-224.918,220.443-216.323,218.96-202.178 M213.563-225.146c-0.003-0.004-0.004-0.004-0.004-0.004
			S213.56-225.15,213.563-225.146"/>
	</defs>
	<clipPath id="SVGID_41_">
		<use xlink:href="#SVGID_40_"  overflow="visible"/>
	</clipPath>

		<linearGradient id="SVGID_42_" gradientUnits="userSpaceOnUse" x1="-196.4399" y1="363" x2="-195.4399" y2="363" gradientTransform="matrix(0 -94.4213 -94.4213 0 34492.6523 -18727.1758)">
		<stop  offset="0" style="stop-color:#FFFFFF"/>
		<stop  offset="0.1694" style="stop-color:#FCFDFD"/>
		<stop  offset="0.3134" style="stop-color:#F1F5F7"/>
		<stop  offset="0.4483" style="stop-color:#E0E8ED"/>
		<stop  offset="0.5776" style="stop-color:#C7D6DF"/>
		<stop  offset="0.703" style="stop-color:#A7BFCD"/>
		<stop  offset="0.8252" style="stop-color:#80A2B6"/>
		<stop  offset="0.9429" style="stop-color:#52819C"/>
		<stop  offset="1" style="stop-color:#396F8E"/>
	</linearGradient>
	<rect x="208.264" y="-225.15" clip-path="url(#SVGID_41_)" fill="url(#SVGID_42_)" width="19.075" height="44.358"/>
</g>
<g>
	<defs>
		<path id="SVGID_43_" d="M231.475-207.077c2.376,13.975-4.479,22.103-4.479,22.103s2.509-0.318,5.911-1.798
			c3.753-1.634,5.696-4.166,5.696-4.166s3.563-8.917-2.582-19.672c-6.041-10.568-15.479-16.397-15.807-16.597
			C220.526-226.998,229.179-220.599,231.475-207.077 M220.214-227.207c-0.004-0.004-0.007-0.005-0.01-0.005
			C220.205-227.212,220.209-227.211,220.214-227.207"/>
	</defs>
	<clipPath id="SVGID_44_">
		<use xlink:href="#SVGID_43_"  overflow="visible"/>
	</clipPath>

		<linearGradient id="SVGID_45_" gradientUnits="userSpaceOnUse" x1="-196.4399" y1="363" x2="-195.4399" y2="363" gradientTransform="matrix(19.4248 0 0 -19.4248 4036.0132 6845.1172)">
		<stop  offset="0" style="stop-color:#FFFFFF"/>
		<stop  offset="0.1694" style="stop-color:#FCFDFD"/>
		<stop  offset="0.3134" style="stop-color:#F1F5F7"/>
		<stop  offset="0.4483" style="stop-color:#E0E8ED"/>
		<stop  offset="0.5776" style="stop-color:#C7D6DF"/>
		<stop  offset="0.703" style="stop-color:#A7BFCD"/>
		<stop  offset="0.8252" style="stop-color:#80A2B6"/>
		<stop  offset="0.9429" style="stop-color:#52819C"/>
		<stop  offset="1" style="stop-color:#396F8E"/>
	</linearGradient>
	<rect x="220.205" y="-227.212" clip-path="url(#SVGID_44_)" fill="url(#SVGID_45_)" width="21.961" height="42.238"/>
</g>
<g>
	<defs>
		<path id="SVGID_46_" d="M231.475-207.077c2.376,13.975-4.479,22.103-4.479,22.103s2.509-0.318,5.911-1.798
			c3.753-1.634,5.696-4.166,5.696-4.166s3.563-8.917-2.582-19.672c-6.041-10.568-15.479-16.397-15.807-16.597
			C220.526-226.998,229.179-220.599,231.475-207.077 M220.205-227.212c0,0,0.005,0.001,0.01,0.005
			C220.21-227.211,220.208-227.212,220.205-227.212z"/>
	</defs>
	<clipPath id="SVGID_47_">
		<use xlink:href="#SVGID_46_"  overflow="visible"/>
	</clipPath>

		<linearGradient id="SVGID_48_" gradientUnits="userSpaceOnUse" x1="-196.4399" y1="363" x2="-195.4399" y2="363" gradientTransform="matrix(0 -94.7975 -94.7975 0 34642.7109 -18803.7793)">
		<stop  offset="0" style="stop-color:#FFFFFF"/>
		<stop  offset="0.1694" style="stop-color:#FCFDFD"/>
		<stop  offset="0.3134" style="stop-color:#F1F5F7"/>
		<stop  offset="0.4483" style="stop-color:#E0E8ED"/>
		<stop  offset="0.5776" style="stop-color:#C7D6DF"/>
		<stop  offset="0.703" style="stop-color:#A7BFCD"/>
		<stop  offset="0.8252" style="stop-color:#80A2B6"/>
		<stop  offset="0.9429" style="stop-color:#52819C"/>
		<stop  offset="1" style="stop-color:#396F8E"/>
	</linearGradient>
	<rect x="220.205" y="-227.212" clip-path="url(#SVGID_47_)" fill="url(#SVGID_48_)" width="21.961" height="42.238"/>
</g>
<g>
	<defs>
		<path id="SVGID_49_" d="M244.817-195.737L244.817-195.737 M244.816-195.735L244.816-195.735l0.001-0.002
			C244.817-195.735,244.816-195.735,244.816-195.735 M242.569-217.157c6.46,11.866,2.292,21.321,2.248,21.42
			c0.042-0.054,3.688-2.687,5.984-5.071c2.62-2.714,3.156-5.49,3.156-5.49s0.979-7.544-8.132-15.424
			c-8.938-7.736-19.68-10.164-20.069-10.252C226.136-231.874,236.298-228.685,242.569-217.157 M225.756-231.974
			c-0.007-0.001-0.011-0.002-0.012-0.002C225.745-231.976,225.748-231.975,225.756-231.974"/>
	</defs>
	<clipPath id="SVGID_50_">
		<use xlink:href="#SVGID_49_"  overflow="visible"/>
	</clipPath>

		<linearGradient id="SVGID_51_" gradientUnits="userSpaceOnUse" x1="-196.4395" y1="363" x2="-195.4395" y2="363" gradientTransform="matrix(28.2422 0 0 -28.2422 5773.6333 10038.0625)">
		<stop  offset="0" style="stop-color:#FFFFFF"/>
		<stop  offset="0.1694" style="stop-color:#FCFDFD"/>
		<stop  offset="0.3134" style="stop-color:#F1F5F7"/>
		<stop  offset="0.4483" style="stop-color:#E0E8ED"/>
		<stop  offset="0.5776" style="stop-color:#C7D6DF"/>
		<stop  offset="0.703" style="stop-color:#A7BFCD"/>
		<stop  offset="0.8252" style="stop-color:#80A2B6"/>
		<stop  offset="0.9429" style="stop-color:#52819C"/>
		<stop  offset="1" style="stop-color:#396F8E"/>
	</linearGradient>
	<rect x="225.745" y="-231.976" clip-path="url(#SVGID_50_)" fill="url(#SVGID_51_)" width="29.191" height="36.241"/>
</g>
<g>
	<defs>
		<path id="SVGID_52_" d="M244.817-195.737L244.817-195.737 M244.816-195.735L244.816-195.735l0.001-0.002
			C244.817-195.735,244.816-195.735,244.816-195.735 M242.569-217.157c6.46,11.866,2.292,21.321,2.248,21.42
			c0.042-0.054,3.688-2.687,5.984-5.071c2.62-2.714,3.156-5.49,3.156-5.49s0.979-7.544-8.132-15.424
			c-8.938-7.736-19.68-10.164-20.069-10.252C226.136-231.874,236.298-228.685,242.569-217.157 M225.745-231.976
			c0,0,0.003,0.001,0.012,0.002C225.75-231.975,225.746-231.976,225.745-231.976z"/>
	</defs>
	<clipPath id="SVGID_53_">
		<use xlink:href="#SVGID_52_"  overflow="visible"/>
	</clipPath>

		<linearGradient id="SVGID_54_" gradientUnits="userSpaceOnUse" x1="-196.4399" y1="363" x2="-195.4399" y2="363" gradientTransform="matrix(0 -94.5529 -94.5528 0 34563.0391 -18755.8164)">
		<stop  offset="0" style="stop-color:#FFFFFF"/>
		<stop  offset="0.1694" style="stop-color:#FCFDFD"/>
		<stop  offset="0.3134" style="stop-color:#F1F5F7"/>
		<stop  offset="0.4483" style="stop-color:#E0E8ED"/>
		<stop  offset="0.5776" style="stop-color:#C7D6DF"/>
		<stop  offset="0.703" style="stop-color:#A7BFCD"/>
		<stop  offset="0.8252" style="stop-color:#80A2B6"/>
		<stop  offset="0.9429" style="stop-color:#52819C"/>
		<stop  offset="1" style="stop-color:#396F8E"/>
	</linearGradient>
	<rect x="225.745" y="-231.976" clip-path="url(#SVGID_53_)" fill="url(#SVGID_54_)" width="29.191" height="36.241"/>
</g>
<g>
	<defs>
		<path id="SVGID_55_" d="M226.34-255.398L226.34-255.398l0.002-0.005C226.341-255.398,226.34-255.398,226.34-255.398
			 M242.528-270.988c0,0-1.26-0.111-7.52,4.547c-6.171,4.591-8.598,10.861-8.666,11.038c0.077-0.163,3.041-5.555,11.753-8.591
			c8.99-3.132,13.009-0.362,13.009-0.362c-0.009-0.005-0.512-2.427-3.604-4.531c-2.889-1.964-4.48-2.104-4.874-2.104
			C242.56-270.991,242.528-270.988,242.528-270.988"/>
	</defs>
	<clipPath id="SVGID_56_">
		<use xlink:href="#SVGID_55_"  overflow="visible"/>
	</clipPath>

		<linearGradient id="SVGID_57_" gradientUnits="userSpaceOnUse" x1="-196.4404" y1="363.002" x2="-195.4404" y2="363.002" gradientTransform="matrix(24.7637 0 0 -24.7637 5090.9175 8726.0156)">
		<stop  offset="0" style="stop-color:#FFFFFF"/>
		<stop  offset="0.1694" style="stop-color:#FCFDFD"/>
		<stop  offset="0.3134" style="stop-color:#F1F5F7"/>
		<stop  offset="0.4483" style="stop-color:#E0E8ED"/>
		<stop  offset="0.5776" style="stop-color:#C7D6DF"/>
		<stop  offset="0.703" style="stop-color:#A7BFCD"/>
		<stop  offset="0.8252" style="stop-color:#80A2B6"/>
		<stop  offset="0.9429" style="stop-color:#52819C"/>
		<stop  offset="1" style="stop-color:#396F8E"/>
	</linearGradient>
	<rect x="226.34" y="-271.099" clip-path="url(#SVGID_56_)" fill="url(#SVGID_57_)" width="24.764" height="15.701"/>
</g>
<g>
	<defs>
		<path id="SVGID_58_" d="M226.34-255.398L226.34-255.398l0.002-0.005C226.341-255.398,226.34-255.398,226.34-255.398
			 M242.528-270.988c0,0-1.26-0.111-7.52,4.547c-6.171,4.591-8.598,10.861-8.666,11.038c0.077-0.163,3.041-5.555,11.753-8.591
			c8.99-3.132,13.009-0.362,13.009-0.362c-0.009-0.005-0.512-2.427-3.604-4.531c-2.889-1.964-4.48-2.104-4.874-2.104
			C242.56-270.991,242.528-270.988,242.528-270.988"/>
	</defs>
	<clipPath id="SVGID_59_">
		<use xlink:href="#SVGID_58_"  overflow="visible"/>
	</clipPath>

		<linearGradient id="SVGID_60_" gradientUnits="userSpaceOnUse" x1="-196.4399" y1="362.999" x2="-195.4399" y2="362.999" gradientTransform="matrix(0 -94.5646 -94.5646 0 34565.6914 -18758.1406)">
		<stop  offset="0" style="stop-color:#FFFFFF"/>
		<stop  offset="0.1694" style="stop-color:#FCFDFD"/>
		<stop  offset="0.3134" style="stop-color:#F1F5F7"/>
		<stop  offset="0.4483" style="stop-color:#E0E8ED"/>
		<stop  offset="0.5776" style="stop-color:#C7D6DF"/>
		<stop  offset="0.703" style="stop-color:#A7BFCD"/>
		<stop  offset="0.8252" style="stop-color:#80A2B6"/>
		<stop  offset="0.9429" style="stop-color:#52819C"/>
		<stop  offset="1" style="stop-color:#396F8E"/>
	</linearGradient>
	<rect x="226.34" y="-271.099" clip-path="url(#SVGID_59_)" fill="url(#SVGID_60_)" width="24.764" height="15.701"/>
</g>
<g>
	<defs>
		<path id="SVGID_61_" d="M228.572-238.74h0.012H228.572z M228.583-238.74c0.349-0.016,9.326,0.084,19.141,9.08
			c10.165,9.321,9.159,17.905,9.159,17.905s1.965-3.062,2.9-6.438c0.768-2.775,0.352-6.224,0.352-6.224s-1.73-5.669-12.031-10.452
			c-7.467-3.463-14.372-3.938-17.606-3.938C229.358-238.807,228.675-238.749,228.583-238.74"/>
	</defs>
	<clipPath id="SVGID_62_">
		<use xlink:href="#SVGID_61_"  overflow="visible"/>
	</clipPath>

		<linearGradient id="SVGID_63_" gradientUnits="userSpaceOnUse" x1="-196.4404" y1="363" x2="-195.4404" y2="363" gradientTransform="matrix(31.6748 0 0 -31.6748 6450.7773 11272.6797)">
		<stop  offset="0" style="stop-color:#FFFFFF"/>
		<stop  offset="0.1694" style="stop-color:#FCFDFD"/>
		<stop  offset="0.3134" style="stop-color:#F1F5F7"/>
		<stop  offset="0.4483" style="stop-color:#E0E8ED"/>
		<stop  offset="0.5776" style="stop-color:#C7D6DF"/>
		<stop  offset="0.703" style="stop-color:#A7BFCD"/>
		<stop  offset="0.8252" style="stop-color:#80A2B6"/>
		<stop  offset="0.9429" style="stop-color:#52819C"/>
		<stop  offset="1" style="stop-color:#396F8E"/>
	</linearGradient>
	<rect x="228.572" y="-238.807" clip-path="url(#SVGID_62_)" fill="url(#SVGID_63_)" width="31.979" height="27.052"/>
</g>
<g>
	<defs>
		<path id="SVGID_64_" d="M228.572-238.74h0.012H228.572z M228.583-238.74c0.349-0.016,9.326,0.084,19.141,9.08
			c10.165,9.321,9.159,17.905,9.159,17.905s1.965-3.062,2.9-6.438c0.768-2.775,0.352-6.224,0.352-6.224s-1.73-5.669-12.031-10.452
			c-7.467-3.463-14.372-3.938-17.606-3.938C229.358-238.807,228.675-238.749,228.583-238.74"/>
	</defs>
	<clipPath id="SVGID_65_">
		<use xlink:href="#SVGID_64_"  overflow="visible"/>
	</clipPath>

		<linearGradient id="SVGID_66_" gradientUnits="userSpaceOnUse" x1="-196.4399" y1="363" x2="-195.4399" y2="363" gradientTransform="matrix(0 -94.8217 -94.8217 0 34664.8555 -18807.8457)">
		<stop  offset="0" style="stop-color:#FFFFFF"/>
		<stop  offset="0.1694" style="stop-color:#FCFDFD"/>
		<stop  offset="0.3134" style="stop-color:#F1F5F7"/>
		<stop  offset="0.4483" style="stop-color:#E0E8ED"/>
		<stop  offset="0.5776" style="stop-color:#C7D6DF"/>
		<stop  offset="0.703" style="stop-color:#A7BFCD"/>
		<stop  offset="0.8252" style="stop-color:#80A2B6"/>
		<stop  offset="0.9429" style="stop-color:#52819C"/>
		<stop  offset="1" style="stop-color:#396F8E"/>
	</linearGradient>
	<rect x="228.572" y="-238.807" clip-path="url(#SVGID_65_)" fill="url(#SVGID_66_)" width="31.979" height="27.052"/>
</g>
<g>
	<defs>
		<path id="SVGID_67_" d="M228.656-246.535c0,0,0.004-0.002,0.008-0.004C228.66-246.537,228.656-246.537,228.656-246.535
			 M228.664-246.539c0.299-0.099,9.052-2.544,19.683,3.092c10.988,5.83,12.242,14.258,12.242,14.258s0.671-4.43,0.836-7.357
			c0.169-2.991-1.147-5.849-1.147-5.849s-1.603-4.435-12.177-6.001c-1.967-0.29-3.876-0.409-5.678-0.409
			C234.697-248.805,228.905-246.631,228.664-246.539"/>
	</defs>
	<clipPath id="SVGID_68_">
		<use xlink:href="#SVGID_67_"  overflow="visible"/>
	</clipPath>

		<linearGradient id="SVGID_69_" gradientUnits="userSpaceOnUse" x1="-196.4399" y1="363.0039" x2="-195.4399" y2="363.0039" gradientTransform="matrix(32.7832 0 0 -32.7832 6668.5825 11661.2969)">
		<stop  offset="0" style="stop-color:#FFFFFF"/>
		<stop  offset="0.1694" style="stop-color:#FCFDFD"/>
		<stop  offset="0.3134" style="stop-color:#F1F5F7"/>
		<stop  offset="0.4483" style="stop-color:#E0E8ED"/>
		<stop  offset="0.5776" style="stop-color:#C7D6DF"/>
		<stop  offset="0.703" style="stop-color:#A7BFCD"/>
		<stop  offset="0.8252" style="stop-color:#80A2B6"/>
		<stop  offset="0.9429" style="stop-color:#52819C"/>
		<stop  offset="1" style="stop-color:#396F8E"/>
	</linearGradient>
	<rect x="228.656" y="-249.083" clip-path="url(#SVGID_68_)" fill="url(#SVGID_69_)" width="32.938" height="19.894"/>
</g>
<g>
	<defs>
		<path id="SVGID_70_" d="M228.656-246.535c0,0,0.004-0.002,0.008-0.004C228.66-246.537,228.656-246.537,228.656-246.535
			 M228.664-246.539c0.299-0.099,9.052-2.544,19.683,3.092c10.988,5.83,12.242,14.258,12.242,14.258s0.671-4.43,0.836-7.357
			c0.169-2.991-1.147-5.849-1.147-5.849s-1.603-4.435-12.177-6.001c-1.967-0.29-3.876-0.409-5.678-0.409
			C234.697-248.805,228.905-246.631,228.664-246.539"/>
	</defs>
	<clipPath id="SVGID_71_">
		<use xlink:href="#SVGID_70_"  overflow="visible"/>
	</clipPath>

		<linearGradient id="SVGID_72_" gradientUnits="userSpaceOnUse" x1="-196.4399" y1="363" x2="-195.4399" y2="363" gradientTransform="matrix(0 -94.6144 -94.6144 0 34590.0898 -18766.8828)">
		<stop  offset="0" style="stop-color:#FFFFFF"/>
		<stop  offset="0.1694" style="stop-color:#FCFDFD"/>
		<stop  offset="0.3134" style="stop-color:#F1F5F7"/>
		<stop  offset="0.4483" style="stop-color:#E0E8ED"/>
		<stop  offset="0.5776" style="stop-color:#C7D6DF"/>
		<stop  offset="0.703" style="stop-color:#A7BFCD"/>
		<stop  offset="0.8252" style="stop-color:#80A2B6"/>
		<stop  offset="0.9429" style="stop-color:#52819C"/>
		<stop  offset="1" style="stop-color:#396F8E"/>
	</linearGradient>
	<rect x="228.656" y="-249.083" clip-path="url(#SVGID_71_)" fill="url(#SVGID_72_)" width="32.938" height="19.894"/>
</g>
<g>
	<defs>
		<path id="SVGID_73_" d="M228.522-251.898c0,0,0.001-0.003,0.002-0.003C228.523-251.901,228.522-251.901,228.522-251.898
			 M243.536-259.512c-9.015,1.854-14.888,7.491-15.012,7.611c0.126-0.108,6.104-4.516,17.033-3.352
			c11.221,1.195,14.067,6.285,14.067,6.285c-0.004-0.012,0.722-2.916-1.483-6.805c-2.397-4.228-4.208-4.846-4.208-4.846
			s-0.261-0.157-1.382-0.157C251.185-260.776,248.542-260.543,243.536-259.512"/>
	</defs>
	<clipPath id="SVGID_74_">
		<use xlink:href="#SVGID_73_"  overflow="visible"/>
	</clipPath>

		<linearGradient id="SVGID_75_" gradientUnits="userSpaceOnUse" x1="-196.4404" y1="363" x2="-195.4404" y2="363" gradientTransform="matrix(31.2139 0 0 -31.2139 6360.1763 11075.7734)">
		<stop  offset="0" style="stop-color:#FFFFFF"/>
		<stop  offset="0.1694" style="stop-color:#FCFDFD"/>
		<stop  offset="0.3134" style="stop-color:#F1F5F7"/>
		<stop  offset="0.4483" style="stop-color:#E0E8ED"/>
		<stop  offset="0.5776" style="stop-color:#C7D6DF"/>
		<stop  offset="0.703" style="stop-color:#A7BFCD"/>
		<stop  offset="0.8252" style="stop-color:#80A2B6"/>
		<stop  offset="0.9429" style="stop-color:#52819C"/>
		<stop  offset="1" style="stop-color:#396F8E"/>
	</linearGradient>
	<rect x="228.522" y="-260.776" clip-path="url(#SVGID_74_)" fill="url(#SVGID_75_)" width="31.824" height="11.808"/>
</g>
<g>
	<defs>
		<path id="SVGID_76_" d="M228.522-251.898c0,0,0.001-0.003,0.002-0.003C228.523-251.901,228.522-251.901,228.522-251.898
			 M243.536-259.512c-9.015,1.854-14.888,7.491-15.012,7.611c0.126-0.108,6.104-4.516,17.033-3.352
			c11.221,1.195,14.067,6.285,14.067,6.285c-0.004-0.012,0.722-2.916-1.483-6.805c-2.397-4.228-4.208-4.846-4.208-4.846
			s-0.261-0.157-1.382-0.157C251.185-260.776,248.542-260.543,243.536-259.512"/>
	</defs>
	<clipPath id="SVGID_77_">
		<use xlink:href="#SVGID_76_"  overflow="visible"/>
	</clipPath>

		<linearGradient id="SVGID_78_" gradientUnits="userSpaceOnUse" x1="-196.4399" y1="363.002" x2="-195.4399" y2="363.002" gradientTransform="matrix(0 -94.9522 -94.9522 0 34712.1758 -18833.543)">
		<stop  offset="0" style="stop-color:#FFFFFF"/>
		<stop  offset="0.1694" style="stop-color:#FCFDFD"/>
		<stop  offset="0.3134" style="stop-color:#F1F5F7"/>
		<stop  offset="0.4483" style="stop-color:#E0E8ED"/>
		<stop  offset="0.5776" style="stop-color:#C7D6DF"/>
		<stop  offset="0.703" style="stop-color:#A7BFCD"/>
		<stop  offset="0.8252" style="stop-color:#80A2B6"/>
		<stop  offset="0.9429" style="stop-color:#52819C"/>
		<stop  offset="1" style="stop-color:#396F8E"/>
	</linearGradient>
	<rect x="228.522" y="-260.776" clip-path="url(#SVGID_77_)" fill="url(#SVGID_78_)" width="31.824" height="11.808"/>
</g>
<g>
	<defs>
		<path id="SVGID_79_" d="M222.842-257.807v-0.002V-257.807z M229.592-274.964c0,0-0.985,0.394-4.072,6.058
			c-3.056,5.599-2.687,10.974-2.678,11.097c-0.001-0.119,0.335-5.072,5.852-10.527c5.668-5.611,9.654-5.157,9.654-5.157
			c-0.008-0.001-1.228-1.529-4.287-1.855c-0.647-0.071-1.211-0.099-1.701-0.099C230.333-275.447,229.592-274.964,229.592-274.964"/>
	</defs>
	<clipPath id="SVGID_80_">
		<use xlink:href="#SVGID_79_"  overflow="visible"/>
	</clipPath>

		<linearGradient id="SVGID_81_" gradientUnits="userSpaceOnUse" x1="-196.4399" y1="363" x2="-195.4399" y2="363" gradientTransform="matrix(15.5244 0 0 -15.5244 3272.4397 5368.7422)">
		<stop  offset="0" style="stop-color:#FFFFFF"/>
		<stop  offset="0.1694" style="stop-color:#FCFDFD"/>
		<stop  offset="0.3134" style="stop-color:#F1F5F7"/>
		<stop  offset="0.4483" style="stop-color:#E0E8ED"/>
		<stop  offset="0.5776" style="stop-color:#C7D6DF"/>
		<stop  offset="0.703" style="stop-color:#A7BFCD"/>
		<stop  offset="0.8252" style="stop-color:#80A2B6"/>
		<stop  offset="0.9429" style="stop-color:#52819C"/>
		<stop  offset="1" style="stop-color:#396F8E"/>
	</linearGradient>
	<rect x="222.464" y="-275.447" clip-path="url(#SVGID_80_)" fill="url(#SVGID_81_)" width="15.884" height="17.64"/>
</g>
<g>
	<defs>
		<path id="SVGID_82_" d="M222.842-257.807v-0.002V-257.807z M229.592-274.964c0,0-0.985,0.394-4.072,6.058
			c-3.056,5.599-2.687,10.974-2.678,11.097c-0.001-0.119,0.335-5.072,5.852-10.527c5.668-5.611,9.654-5.157,9.654-5.157
			c-0.008-0.001-1.228-1.529-4.287-1.855c-0.647-0.071-1.211-0.099-1.701-0.099C230.333-275.447,229.592-274.964,229.592-274.964"/>
	</defs>
	<clipPath id="SVGID_83_">
		<use xlink:href="#SVGID_82_"  overflow="visible"/>
	</clipPath>

		<linearGradient id="SVGID_84_" gradientUnits="userSpaceOnUse" x1="-196.4399" y1="363" x2="-195.4399" y2="363" gradientTransform="matrix(0 -94.4365 -94.4365 0 34510.8672 -18732.0254)">
		<stop  offset="0" style="stop-color:#FFFFFF"/>
		<stop  offset="0.1694" style="stop-color:#FCFDFD"/>
		<stop  offset="0.3134" style="stop-color:#F1F5F7"/>
		<stop  offset="0.4483" style="stop-color:#E0E8ED"/>
		<stop  offset="0.5776" style="stop-color:#C7D6DF"/>
		<stop  offset="0.703" style="stop-color:#A7BFCD"/>
		<stop  offset="0.8252" style="stop-color:#80A2B6"/>
		<stop  offset="0.9429" style="stop-color:#52819C"/>
		<stop  offset="1" style="stop-color:#396F8E"/>
	</linearGradient>
	<rect x="222.464" y="-275.447" clip-path="url(#SVGID_83_)" fill="url(#SVGID_84_)" width="15.884" height="17.64"/>
</g>
<g>
	<defs>
		<rect id="SVGID_85_" x="-217.303" y="-385.586" width="595.28" height="841.891"/>
	</defs>
	<defs>
		<rect id="SVGID_86_" x="-217.303" y="-385.586" width="595.28" height="841.891"/>
	</defs>
	<defs>
		<rect id="SVGID_87_" x="-217.303" y="-385.586" width="595.28" height="841.891"/>
	</defs>
	<defs>
		<rect id="SVGID_88_" y="2.37" width="195.534" height="109.942"/>
	</defs>
	<clipPath id="SVGID_89_">
		<use xlink:href="#SVGID_85_"  overflow="visible"/>
	</clipPath>
	<clipPath id="SVGID_90_" clip-path="url(#SVGID_89_)">
		<use xlink:href="#SVGID_86_"  overflow="visible"/>
	</clipPath>
	<clipPath id="SVGID_91_" clip-path="url(#SVGID_90_)">
		<use xlink:href="#SVGID_87_"  overflow="visible"/>
	</clipPath>
	<clipPath id="SVGID_92_" clip-path="url(#SVGID_91_)">
		<use xlink:href="#SVGID_88_"  overflow="visible"/>
	</clipPath>
	<path clip-path="url(#SVGID_92_)" fill="#396F8E" d="M112.384,27.325c1.863-2.736,3.4-3.57,3.4-3.57s9.688,0.553,17.426,8.494
		c7.732,7.945,10.027,16.604,10.027,16.604c0.012-0.006-2.988-8.338-14.553-14.707c-11.746-6.471-18.564-2.508-18.564-2.508
		S110.669,29.843,112.384,27.325"/>
	<path clip-path="url(#SVGID_92_)" fill="#396F8E" d="M123.71,15.177c1.959-1.883,3.563-2.164,3.563-2.164s8.156,2.4,13.559,11.553
		s5.754,17.99,5.754,17.99c0.018-0.008-1.039-8.656-10.213-16.986c-9.318-8.461-16.404-6.324-16.404-6.324
		S121.775,17.032,123.71,15.177"/>
	<path clip-path="url(#SVGID_92_)" fill="#396F8E" d="M134.632,7.995c2.854-1.596,4.371-1.459,4.371-1.459
		s6.656,3.318,10.072,13.227c3.415,9.908,2.087,18.563,2.087,18.563c0.016-0.004,0.637-8.605-6.513-18.428
		c-7.262-9.979-14.354-8.877-14.354-8.877S132.173,9.37,134.632,7.995"/>
	<path clip-path="url(#SVGID_92_)" fill="#B9C3C8" d="M148.054,3.31c2.407-0.695,4.437,0.102,4.437,0.102s5.742,4.857,6.475,14.912
		c0.73,10.055-2.643,17.879-2.643,17.879c0.014,0,2.717-7.932-1.512-18.736c-4.299-10.977-11.696-12.322-11.696-12.322
		S145.158,4.142,148.054,3.31"/>
	<path clip-path="url(#SVGID_92_)" fill="#B9C3C8" d="M162.092,3.261c2.414,0.246,4.209,1.457,4.209,1.457s4.457,6.943,2.406,16.201
		c-2.053,9.256-7.352,15.492-7.352,15.492c0.01,0.006,4.713-6.494,3.684-17.285C164,8.161,157.741,3.364,157.741,3.364
		S159.831,3.034,162.092,3.261"/>
	<path clip-path="url(#SVGID_92_)" fill="#B9C3C8" d="M174.559,7.534c2.564,1.229,3.889,3.135,3.889,3.135s2.432,6.707-1.76,14.801
		c-4.197,8.094-10.795,12.492-10.795,12.492c0.012,0.008,6.096-4.799,7.689-15.148c1.621-10.518-3.057-16.633-3.057-16.633
		S172.237,6.423,174.559,7.534"/>
	<path clip-path="url(#SVGID_92_)" fill="#B9C3C8" d="M186.774,18.097c1.787,2.039,2.15,4.125,2.15,4.125s0.67,5.682-5.545,11.607
		c-6.219,5.93-13.709,7.719-13.709,7.719c0.008,0.01,7.125-2.314,11.486-11.152c4.428-8.975,1.531-16.115,1.531-16.115
		C182.68,14.29,185.192,16.288,186.774,18.097"/>
	<path clip-path="url(#SVGID_92_)" fill="#396F8E" d="M184.518,69.32c-2.293,1.723-3.393,1.58-3.393,1.58s-0.857,0.086-5.131-3.422
		c-4.273-3.506-5.918-8.31-5.918-8.31c-0.002,0.008,1.988,4.149,8.023,6.47c6.135,2.357,8.879,0.271,8.879,0.271
		C186.971,65.914,186.631,67.736,184.518,69.32"/>
	<path clip-path="url(#SVGID_92_)" fill="#396F8E" d="M192.901,31.177c0.527,2.086,0.242,4.682,0.242,4.682
		s-1.182,4.266-8.211,7.861c-7.031,3.598-13.33,2.916-13.33,2.916c0.004,0.012,6.242,0.07,13.072-6.828
		c6.938-7.018,6.25-13.475,6.25-13.475S192.262,28.636,192.901,31.177"/>
	<path clip-path="url(#SVGID_92_)" fill="#396F8E" d="M194.02,44.985c0.117,2.252-0.781,4.4-0.781,4.4s-1.092,3.336-8.309,4.516
		c-7.221,1.178-13.271-1.398-13.271-1.398c0.002,0.01,6.059,1.99,13.439-2.326c7.498-4.385,8.352-10.727,8.352-10.727
		S193.909,42.782,194.02,44.985"/>
	<path clip-path="url(#SVGID_92_)" fill="#396F8E" d="M191.784,59.452c-1.639,3.181-2.873,3.646-2.873,3.646
		s-0.877,0.58-7.098-0.832c-6.219-1.411-10.246-5.728-10.246-5.728c0,0.01,4.088,3.406,11.627,2.523
		c7.658-0.898,9.602-4.729,9.602-4.729C192.79,54.341,193.286,56.524,191.784,59.452"/>
	<path clip-path="url(#SVGID_92_)" fill="#396F8E" d="M175.348,74.184c-2.273,0.266-3.053-0.291-3.053-0.291
		s-0.668-0.297-2.777-4.557c-2.109-4.262-1.826-8.353-1.826-8.353c-0.006,0,0.184,3.769,3.994,7.923
		c3.867,4.219,6.588,3.881,6.588,3.881C178.266,72.787,177.434,73.938,175.348,74.184"/>

		<line clip-path="url(#SVGID_92_)" fill="none" stroke="#396F8E" stroke-width="2" stroke-miterlimit="10" x1="101.138" y1="7.628" x2="101.138" y2="74.189"/>
	<path clip-path="url(#SVGID_92_)" fill="#396F8E" d="M87.303,68.227c0,4.223-3.896,7.648-8.705,7.648h-66.02
		c-4.81,0-8.71-3.426-8.71-7.648V11.813c0-4.225,3.9-7.65,8.71-7.65h66.02c4.809,0,8.705,3.426,8.705,7.65V68.227z"/>
	<polygon clip-path="url(#SVGID_92_)" fill="#FFFFFF" points="41.466,19.458 45.544,19.458 45.544,60.601 42.188,60.601
		42.188,27.63 42.648,23.456 42.447,23.456 41.068,27.394 28.836,50.729 26.139,50.729 13.902,27.394 12.521,23.456 12.327,23.456
		12.787,27.63 12.787,60.601 9.43,60.601 9.43,19.458 13.509,19.458 27.455,46.849 	"/>
	<path clip-path="url(#SVGID_92_)" fill="#FFFFFF" d="M80.655,52.845c0,3.875-3.158,6.289-7.299,7.346
		c-3.552,0.881-9.408,0.881-12.896,0.059c-4.272-1-7.631-3.471-7.693-7.346V27.099c0.063-4.287,4.078-6.816,8.879-7.641
		c3.617-0.586,8.881-0.527,12.3,0.471c3.881,1.176,6.709,3.527,6.709,7.17h-3.289c0-2.17-1.908-3.643-4.408-4.41
		c-3.022-0.881-7.561-0.881-10.721-0.348c-3.353,0.586-6.181,2.174-6.181,4.758v25.805c0,2.291,2.301,3.816,5.261,4.525
		c3.091,0.707,8.022,0.707,11.118-0.059c2.828-0.707,4.931-2.232,4.931-4.467L80.655,52.845z"/>
	<path clip-path="url(#SVGID_92_)" fill="#112F40" d="M3.474,107.492c0.023,1.521,1.436,2.277,2.703,2.523
		c1.247,0.248,2.989,0.248,4.212-0.17c1.082-0.393,1.906-1.131,1.906-2.354h0.375c0,1.371-0.893,2.252-2.185,2.697
		c-1.224,0.414-3.107,0.439-4.377,0.195c-1.459-0.295-2.961-1.178-2.988-2.893v-0.225v-10.83v-0.195
		c0.027-1.738,1.529-2.625,2.988-2.918c1.27-0.242,3.153-0.219,4.377,0.197c1.292,0.467,2.185,1.348,2.185,2.721h-0.375
		c0-1.252-0.824-1.986-1.906-2.354c-1.223-0.418-2.965-0.439-4.212-0.195c-1.267,0.244-2.68,1.027-2.703,2.549V107.492z"/>
	<path clip-path="url(#SVGID_92_)" fill="#112F40" d="M14.953,96.094c0-4.092,9.551-4.092,9.551,0v11.494c0,4.07-9.551,4.07-9.551,0
		V96.094z M24.104,96.094c0-1.863-2.209-2.693-4.422-2.693c-2.165,0.025-4.354,0.855-4.354,2.693v11.471
		c0,1.865,2.188,2.674,4.354,2.697c2.213,0,4.422-0.809,4.422-2.697V96.094z"/>
	<polygon clip-path="url(#SVGID_92_)" fill="#112F40" points="36.502,110.408 35.867,110.408 27.257,93.471 27.257,110.408
		26.904,110.408 26.904,93.229 27.516,93.229 36.125,110.137 36.125,93.229 36.502,93.229 	"/>
	<path clip-path="url(#SVGID_92_)" fill="#112F40" d="M38.619,107.268c0,1.229,0.729,2.234,1.902,2.627
		c1.625,0.588,3.932,0.469,5.271-0.711c1.414-1.227,1.769-3.896,0.636-5.492c-0.684-0.982-1.93-1.443-3.341-1.813
		c-1.741-0.441-3.812-0.857-4.446-2.893c-0.449-1.494-0.213-3.527,0.897-4.607c1.386-1.322,3.458-1.545,5.177-0.93
		c1.194,0.416,2.186,1.299,2.186,2.717h-0.377c0-1.246-0.87-2.006-1.928-2.377c-1.6-0.561-3.553-0.389-4.805,0.857
		c-0.959,0.961-1.22,2.822-0.799,4.145c0.59,1.914,2.497,2.275,4.118,2.721c1.554,0.414,2.896,0.855,3.647,1.934
		c1.225,1.742,0.803,4.682-0.729,6.033c-1.457,1.246-3.854,1.395-5.621,0.783c-1.343-0.467-2.166-1.594-2.166-2.994H38.619z"/>
	<path clip-path="url(#SVGID_92_)" fill="#112F40" d="M50.618,109.674c-0.851-0.539-1.345-1.35-1.345-2.377V93.254h0.352v14.043
		c0,0.902,0.45,1.59,1.182,2.059c0.748,0.49,1.994,0.734,3.268,0.734c1.316,0.025,2.638-0.221,3.434-0.734
		c0.729-0.469,1.18-1.156,1.18-2.059V93.254h0.352v14.043c0,1.027-0.495,1.838-1.34,2.377c-0.874,0.541-2.281,0.809-3.676,0.783
		C52.711,110.434,51.416,110.189,50.618,109.674"/>
	<path clip-path="url(#SVGID_92_)" fill="#112F40" d="M61.814,107.32c0,2.01,1.742,2.721,3.342,2.721h3.785v0.367h-3.785
		c-1.766,0-3.721-0.809-3.721-3.037V93.229h0.355L61.814,107.32z"/>
	<polygon clip-path="url(#SVGID_92_)" fill="#112F40" points="80.069,93.254 80.069,93.645 75.297,93.645 75.297,110.408
		74.918,110.408 74.918,93.645 70.141,93.645 70.141,93.254 	"/>
	<path clip-path="url(#SVGID_92_)" fill="#112F40" d="M81.808,110.408V96.141c0-1.025,0.517-1.762,1.343-2.275
		c1.648-1.031,5.271-1.031,6.916,0c0.824,0.514,1.343,1.25,1.343,2.275v14.268h-0.377v-7.059h-0.424h-8.023h-0.423v0.439v6.619
		H81.808z M82.162,102.982h0.423h8.023h0.424v-6.842c0.028-0.854-0.467-1.516-1.155-1.955c-1.551-0.984-5.009-0.984-6.562,0
		c-0.684,0.439-1.153,1.102-1.153,1.955V102.982z"/>
	<path clip-path="url(#SVGID_92_)" fill="#396F8E" d="M120.15,95.902h0.021v14.021h-1.227v-6.719h-7.939v6.719h-1.225V95.902
		c0-1.127,0.611-1.986,1.516-2.525c1.793-1.078,5.568-1.078,7.334,0C119.537,93.916,120.15,94.775,120.15,95.902 M111.005,95.902
		v6.08h7.939v-6.08c0-0.641-0.391-1.15-0.953-1.494c-1.4-0.859-4.684-0.834-6.053,0C111.375,94.752,111.005,95.262,111.005,95.902"
		/>
	<path clip-path="url(#SVGID_92_)" fill="#396F8E" d="M128.164,108.842c1.125,0,2.254-0.123,2.916-0.537
		c0.584-0.346,0.955-0.908,0.955-1.594V92.766h1.227v13.945c0,1.129-0.592,2.008-1.547,2.598c-0.83,0.514-2.182,0.787-3.529,0.764
		h-0.246c-1.348,0.023-2.693-0.25-3.525-0.764c-0.959-0.59-1.549-1.469-1.549-2.598V92.766h1.23v13.945
		c0,0.686,0.363,1.201,0.949,1.545c0.617,0.393,1.672,0.586,2.75,0.586H128.164z"/>
	<path clip-path="url(#SVGID_92_)" fill="#396F8E" d="M135.783,109.924V92.742h5.955c1.982,0,4.463,1.002,4.463,3.309v10.539
		c0,2.354-2.527,3.334-4.633,3.334H135.783z M144.953,96.051c0-1.471-1.965-2.088-3.24-2.088h-0.098h-0.023h-4.559v14.709h4.535
		c1.148,0,2.891-0.391,3.283-1.57C145.023,106.615,144.953,98.131,144.953,96.051"/>
	<rect x="149.066" y="92.742" clip-path="url(#SVGID_92_)" fill="#396F8E" width="1.223" height="17.182"/>
	<polygon clip-path="url(#SVGID_92_)" fill="#396F8E" points="152.446,92.766 163.008,92.766 163.008,93.844 158.352,93.844
		158.305,109.924 157.059,109.924 157.104,93.844 152.446,93.844 	"/>
	<rect x="165.239" y="92.742" clip-path="url(#SVGID_92_)" fill="#396F8E" width="1.227" height="17.182"/>
	<path clip-path="url(#SVGID_92_)" fill="#396F8E" d="M174.186,110.119l-3.943-3.479c-0.738-0.666-0.936-1.301-0.936-2.234V92.742
		h1.252v11.689c0,0.637,0,0.783,0.488,1.252l3.404,3.037l3.412-3.037c0.463-0.469,0.463-0.615,0.463-1.252V92.742h1.252v11.664
		c0,0.934-0.195,1.568-0.93,2.234l-3.949,3.479H174.186z"/>
	<path clip-path="url(#SVGID_92_)" fill="#396F8E" d="M192.395,95.902h0.025v14.021h-1.227v-6.719h-7.939v6.719h-1.227V95.902
		c0-1.127,0.613-1.986,1.516-2.525c1.793-1.078,5.568-1.078,7.334,0C191.78,93.916,192.395,94.775,192.395,95.902 M183.254,95.902
		v6.08h7.939v-6.08c0-0.641-0.393-1.15-0.957-1.494c-1.393-0.859-4.682-0.834-6.053,0C183.622,94.752,183.254,95.262,183.254,95.902
		"/>
	<path clip-path="url(#SVGID_92_)" fill="#396F8E" d="M119.718-251.125c2.73-3.639,4.982-4.746,4.982-4.746
		s14.195,0.734,25.531,11.289c11.333,10.56,14.694,22.065,14.694,22.065c0.018-0.007-4.381-11.081-21.323-19.545
		c-17.209-8.6-27.199-3.332-27.199-3.332S117.207-247.78,119.718-251.125"/>
	<path clip-path="url(#SVGID_92_)" fill="#396F8E" d="M136.312-267.271c2.875-2.504,5.223-2.875,5.223-2.875
		s11.948,3.19,19.868,15.353c7.916,12.162,8.43,23.91,8.43,23.91c0.021-0.011-1.523-11.505-14.965-22.576
		c-13.651-11.247-24.036-8.406-24.036-8.406S133.476-264.807,136.312-267.271"/>
	<path clip-path="url(#SVGID_92_)" fill="#396F8E" d="M152.315-276.816c4.186-2.119,6.408-1.94,6.408-1.94
		s9.752,4.412,14.758,17.582c5.002,13.168,3.061,24.668,3.061,24.668c0.018-0.004,0.93-11.437-9.547-24.492
		c-10.639-13.262-21.026-11.797-21.026-11.797S148.71-274.988,152.315-276.816"/>
	<path clip-path="url(#SVGID_92_)" fill="#396F8E" d="M225.413-195.314c-3.363,2.289-4.971,2.101-4.971,2.101
		s-1.26,0.112-7.52-4.545c-6.26-4.66-8.668-11.046-8.668-11.046c-0.01,0.011,2.914,5.514,11.756,8.598
		c8.988,3.13,13.006,0.362,13.006,0.362C229.01-199.838,228.506-197.418,225.413-195.314"/>
	<path clip-path="url(#SVGID_92_)" fill="#396F8E" d="M237.698-246.008c0.768,2.774,0.352,6.224,0.352,6.224
		s-1.73,5.67-12.029,10.448c-10.303,4.779-19.533,3.873-19.533,3.873c0.006,0.018,9.143,0.097,19.152-9.076
		c10.164-9.323,9.158-17.907,9.158-17.907S236.758-249.387,237.698-246.008"/>
	<path clip-path="url(#SVGID_92_)" fill="#396F8E" d="M239.338-227.656c0.168,2.992-1.148,5.851-1.148,5.851
		s-1.602,4.432-12.176,6.002c-10.578,1.561-19.443-1.863-19.443-1.863c0.002,0.016,8.875,2.648,19.689-3.089
		c10.988-5.829,12.242-14.255,12.242-14.255S239.172-230.584,239.338-227.656"/>
	<path clip-path="url(#SVGID_92_)" fill="#396F8E" d="M236.055-208.43c-2.396,4.229-4.209,4.847-4.209,4.847
		s-1.283,0.77-10.396-1.107c-9.111-1.873-15.014-7.613-15.014-7.613c0,0.015,5.988,4.529,17.035,3.356
		c11.223-1.194,14.066-6.286,14.066-6.286C237.534-215.223,238.26-212.32,236.055-208.43"/>
	<path clip-path="url(#SVGID_92_)" fill="#396F8E" d="M211.975-188.852c-3.328,0.354-4.469-0.385-4.469-0.385
		s-0.984-0.393-4.072-6.057c-3.092-5.662-2.678-11.101-2.678-11.101c-0.008,0.002,0.27,5.008,5.852,10.528
		c5.67,5.612,9.654,5.161,9.654,5.161C216.254-190.706,215.034-189.178,211.975-188.852"/>

		<line clip-path="url(#SVGID_92_)" fill="none" stroke="#396F8E" stroke-miterlimit="10" x1="1.469" y1="-220.684" x2="1.469" y2="-193.848"/>
	<path clip-path="url(#SVGID_92_)" fill="#396F8E" d="M-4.109-196.252c0,1.703-1.57,3.084-3.51,3.084h-26.617
		c-1.939,0-3.512-1.381-3.512-3.084v-22.744c0-1.702,1.573-3.084,3.512-3.084h26.617c1.94,0,3.51,1.382,3.51,3.084V-196.252z"/>
	<polygon clip-path="url(#SVGID_92_)" fill="#FFFFFF" points="-22.59,-215.914 -20.945,-215.914 -20.945,-199.326 -22.299,-199.326
		-22.299,-212.62 -22.113,-214.303 -22.194,-214.303 -22.75,-212.714 -27.682,-203.307 -28.77,-203.307 -33.703,-212.714
		-34.26,-214.303 -34.338,-214.303 -34.153,-212.62 -34.153,-199.326 -35.506,-199.326 -35.506,-215.914 -33.861,-215.914
		-28.238,-204.871 	"/>
	<path clip-path="url(#SVGID_92_)" fill="#FFFFFF" d="M-6.789-202.454c0,1.564-1.273,2.536-2.943,2.962
		c-1.432,0.355-3.793,0.355-5.2,0.024c-1.722-0.403-3.076-1.399-3.101-2.963v-10.402c0.025-1.73,1.644-2.749,3.58-3.081
		c1.459-0.237,3.58-0.213,4.959,0.189c1.564,0.475,2.705,1.422,2.705,2.892h-1.326c0-0.877-0.77-1.47-1.778-1.778
		c-1.218-0.354-3.048-0.354-4.322-0.142c-1.351,0.237-2.492,0.877-2.492,1.92v10.402c0,0.925,0.928,1.541,2.121,1.825
		c1.246,0.285,3.234,0.285,4.483-0.023c1.14-0.285,1.988-0.901,1.988-1.802L-6.789-202.454z"/>
	<path clip-path="url(#SVGID_92_)" fill="#112F40" d="M9.939-201.606c0.023,1.488,1.465,2.232,2.76,2.473
		c1.271,0.24,3.049,0.24,4.297-0.168c1.104-0.385,1.943-1.105,1.943-2.305h0.385c0,1.345-0.912,2.208-2.232,2.641
		c-1.248,0.408-3.168,0.431-4.464,0.191c-1.489-0.288-3.024-1.151-3.047-2.832v-0.216v-10.609v-0.192
		c0.023-1.704,1.558-2.568,3.047-2.856c1.296-0.24,3.216-0.216,4.464,0.192c1.32,0.456,2.232,1.32,2.232,2.664h-0.385
		c0-1.224-0.84-1.944-1.943-2.304c-1.248-0.408-3.025-0.432-4.297-0.192c-1.295,0.24-2.737,1.008-2.76,2.496V-201.606z"/>
	<path clip-path="url(#SVGID_92_)" fill="#112F40" d="M21.65-212.767c0-4.008,9.746-4.008,9.746,0v11.258
		c0,3.983-9.746,3.983-9.746,0V-212.767z M30.988-212.767c0-1.824-2.256-2.64-4.514-2.64c-2.207,0.024-4.439,0.84-4.439,2.64v11.233
		c0,1.825,2.232,2.617,4.439,2.641c2.258,0,4.514-0.793,4.514-2.641V-212.767z"/>
	<polygon clip-path="url(#SVGID_92_)" fill="#112F40" points="43.637,-198.75 42.988,-198.75 34.203,-215.334 34.203,-198.75
		33.844,-198.75 33.844,-215.575 34.467,-215.575 43.252,-199.014 43.252,-215.575 43.637,-215.575 	"/>
	<path clip-path="url(#SVGID_92_)" fill="#112F40" d="M45.795-201.822c0,1.2,0.744,2.185,1.943,2.568
		c1.656,0.577,4.008,0.456,5.377-0.696c1.439-1.2,1.801-3.816,0.648-5.376c-0.697-0.961-1.969-1.417-3.408-1.776
		c-1.777-0.433-3.889-0.84-4.537-2.832c-0.455-1.465-0.217-3.457,0.912-4.513c1.416-1.296,3.529-1.513,5.281-0.912
		c1.223,0.408,2.23,1.272,2.23,2.664h-0.383c0-1.224-0.889-1.968-1.969-2.328c-1.631-0.552-3.623-0.384-4.896,0.84
		c-0.984,0.936-1.248,2.76-0.816,4.056c0.602,1.872,2.545,2.233,4.201,2.664c1.584,0.409,2.953,0.84,3.721,1.897
		c1.248,1.704,0.816,4.584-0.744,5.904c-1.488,1.225-3.938,1.368-5.736,0.769c-1.369-0.456-2.209-1.561-2.209-2.929H45.795z"/>
	<path clip-path="url(#SVGID_92_)" fill="#112F40" d="M58.035-199.469c-0.865-0.528-1.369-1.32-1.369-2.328v-13.754h0.359v13.754
		c0,0.888,0.457,1.559,1.201,2.015c0.768,0.481,2.039,0.72,3.336,0.72c1.344,0.025,2.688-0.216,3.504-0.72
		c0.744-0.456,1.201-1.127,1.201-2.015v-13.754h0.359v13.754c0,1.008-0.504,1.8-1.367,2.328c-0.889,0.527-2.328,0.792-3.746,0.768
		C60.17-198.725,58.85-198.965,58.035-199.469"/>
	<path clip-path="url(#SVGID_92_)" fill="#112F40" d="M69.459-201.774c0,1.969,1.775,2.664,3.408,2.664h3.863v0.36h-3.863
		c-1.801,0-3.793-0.792-3.793-2.976v-13.849h0.359L69.459-201.774z"/>
	<polygon clip-path="url(#SVGID_92_)" fill="#112F40" points="88.082,-215.551 88.082,-215.167 83.211,-215.167 83.211,-198.75
		82.826,-198.75 82.826,-215.167 77.953,-215.167 77.953,-215.551 	"/>
	<path clip-path="url(#SVGID_92_)" fill="#112F40" d="M89.857-198.75v-13.968c0-1.009,0.527-1.729,1.369-2.233
		c1.68-1.009,5.375-1.009,7.057,0c0.84,0.504,1.367,1.224,1.367,2.233v13.968h-0.385v-6.913h-0.432H90.65h-0.434v0.433v6.48H89.857z
		 M90.217-206.022h0.434h8.184h0.432v-6.696c0.025-0.841-0.479-1.489-1.176-1.921c-1.584-0.96-5.111-0.96-6.695,0
		c-0.698,0.432-1.178,1.08-1.178,1.921V-206.022z"/>
	<path clip-path="url(#SVGID_92_)" fill="#396F8E" d="M121.796-212.479h0.023v13.729h-1.201v-6.576h-7.775v6.576h-1.201v-13.729
		c0-1.104,0.602-1.944,1.488-2.472c1.752-1.056,5.449-1.056,7.178,0C121.197-214.423,121.796-213.583,121.796-212.479
		 M112.843-212.479v5.953h7.775v-5.953c0-0.624-0.383-1.128-0.936-1.464c-1.367-0.84-4.584-0.816-5.928,0
		C113.203-213.607,112.843-213.103,112.843-212.479"/>
	<path clip-path="url(#SVGID_92_)" fill="#396F8E" d="M129.644-199.805c1.104,0,2.207-0.12,2.855-0.528
		c0.576-0.336,0.936-0.889,0.936-1.561v-13.657h1.201v13.657c0,1.105-0.576,1.969-1.512,2.545c-0.816,0.504-2.137,0.768-3.457,0.743
		h-0.24c-1.32,0.025-2.641-0.239-3.457-0.743c-0.936-0.576-1.512-1.44-1.512-2.545v-13.657h1.201v13.657
		c0,0.672,0.359,1.177,0.936,1.513c0.6,0.384,1.633,0.576,2.688,0.576H129.644z"/>
	<path clip-path="url(#SVGID_92_)" fill="#396F8E" d="M137.107-198.75v-16.825h5.832c1.943,0,4.369,0.983,4.369,3.24v10.32
		c0,2.305-2.473,3.265-4.537,3.265H137.107z M146.083-212.334c0-1.44-1.92-2.04-3.168-2.04h-0.096h-0.025h-4.465v14.401h4.441
		c1.129,0,2.832-0.384,3.217-1.536C146.156-201.989,146.083-210.294,146.083-212.334"/>
	<rect x="150.115" y="-215.575" clip-path="url(#SVGID_92_)" fill="#396F8E" width="1.2" height="16.825"/>
	<polygon clip-path="url(#SVGID_92_)" fill="#396F8E" points="153.428,-215.551 163.772,-215.551 163.772,-214.494
		159.211,-214.494 159.165,-198.75 157.94,-198.75 157.989,-214.494 153.428,-214.494 	"/>
	<rect x="165.956" y="-215.575" clip-path="url(#SVGID_92_)" fill="#396F8E" width="1.199" height="16.825"/>
	<path clip-path="url(#SVGID_92_)" fill="#396F8E" d="M174.715-198.557l-3.863-3.408c-0.721-0.649-0.912-1.273-0.912-2.185v-11.425
		h1.223v11.45c0,0.624,0,0.767,0.48,1.223l3.336,2.977l3.338-2.977c0.455-0.456,0.455-0.599,0.455-1.223v-11.45h1.225v11.425
		c0,0.912-0.191,1.536-0.912,2.185l-3.865,3.408H174.715z"/>
	<path clip-path="url(#SVGID_92_)" fill="#396F8E" d="M192.547-212.479h0.025v13.729h-1.201v-6.576h-7.775v6.576h-1.201v-13.729
		c0-1.104,0.6-1.944,1.488-2.472c1.752-1.056,5.449-1.056,7.178,0C191.948-214.423,192.547-213.583,192.547-212.479
		 M183.596-212.479v5.953h7.775v-5.953c0-0.624-0.383-1.128-0.936-1.464c-1.367-0.84-4.584-0.816-5.928,0
		C183.956-213.607,183.596-213.103,183.596-212.479"/>
	<path clip-path="url(#SVGID_92_)" fill="#396F8E" d="M136.218,249.85c2.729-3.641,4.982-4.748,4.982-4.748
		s14.194,0.734,25.53,11.291c11.332,10.559,14.693,22.064,14.693,22.064c0.018-0.008-4.381-11.08-21.322-19.545
		c-17.208-8.6-27.198-3.332-27.198-3.332S133.707,253.193,136.218,249.85"/>
	<path clip-path="url(#SVGID_92_)" fill="#396F8E" d="M152.811,233.701c2.875-2.504,5.223-2.875,5.223-2.875
		s11.947,3.191,19.867,15.355c7.916,12.16,8.432,23.908,8.432,23.908c0.02-0.01-1.525-11.504-14.967-22.576
		c-13.65-11.246-24.034-8.406-24.034-8.406S149.976,236.166,152.811,233.701"/>
	<path clip-path="url(#SVGID_92_)" fill="#396F8E" d="M168.813,224.156c4.186-2.119,6.408-1.939,6.408-1.939
		s9.752,4.412,14.758,17.582c5.002,13.168,3.061,24.668,3.061,24.668c0.018-0.004,0.93-11.436-9.547-24.492
		c-10.639-13.262-21.025-11.797-21.025-11.797S165.209,225.984,168.813,224.156"/>
	<path clip-path="url(#SVGID_92_)" fill="#B9C3C8" d="M188.479,217.93c3.531-0.922,6.51,0.135,6.51,0.135s8.406,6.457,9.482,19.818
		c1.068,13.365-3.875,23.764-3.875,23.764c0.021,0,3.982-10.541-2.217-24.902c-6.297-14.584-17.135-16.375-17.135-16.375
		S184.239,219.037,188.479,217.93"/>
	<path clip-path="url(#SVGID_92_)" fill="#B9C3C8" d="M209.053,217.865c3.535,0.324,6.164,1.938,6.164,1.938
		s6.533,9.225,3.525,21.529s-10.771,20.592-10.771,20.592c0.016,0.004,6.904-8.631,5.4-22.975
		C211.844,224.377,202.676,218,202.676,218S205.733,217.563,209.053,217.865"/>
	<path clip-path="url(#SVGID_92_)" fill="#B9C3C8" d="M227.319,223.545c3.754,1.633,5.697,4.164,5.697,4.164
		s3.563,8.914-2.582,19.674c-6.148,10.756-15.816,16.602-15.816,16.602c0.018,0.01,8.934-6.377,11.27-20.133
		c2.377-13.979-4.479-22.105-4.479-22.105S223.917,222.066,227.319,223.545"/>
	<path clip-path="url(#SVGID_92_)" fill="#B9C3C8" d="M245.213,237.578c2.619,2.715,3.154,5.488,3.154,5.488
		s0.98,7.553-8.129,15.428c-9.107,7.879-20.082,10.256-20.082,10.256c0.012,0.014,10.438-3.076,16.826-14.82
		c6.492-11.93,2.246-21.42,2.246-21.42C239.217,232.523,242.899,235.18,245.213,237.578"/>
	<path clip-path="url(#SVGID_92_)" fill="#396F8E" d="M241.911,305.66c-3.363,2.289-4.971,2.1-4.971,2.1s-1.258,0.113-7.52-4.545
		c-6.26-4.66-8.668-11.045-8.668-11.045c-0.01,0.01,2.914,5.514,11.756,8.598c8.988,3.131,13.008,0.361,13.008,0.361
		C245.508,301.135,245.004,303.555,241.911,305.66"/>
	<path clip-path="url(#SVGID_92_)" fill="#396F8E" d="M254.196,254.967c0.768,2.773,0.352,6.223,0.352,6.223
		s-1.73,5.67-12.029,10.449c-10.303,4.779-19.533,3.873-19.533,3.873c0.006,0.018,9.143,0.096,19.152-9.076
		c10.164-9.324,9.158-17.908,9.158-17.908S253.258,251.588,254.196,254.967"/>
	<path clip-path="url(#SVGID_92_)" fill="#396F8E" d="M255.836,273.318c0.168,2.992-1.148,5.85-1.148,5.85
		s-1.602,4.434-12.176,6.002c-10.578,1.563-19.443-1.861-19.443-1.861c0.002,0.016,8.875,2.646,19.689-3.09
		C253.747,274.391,255,265.963,255,265.963S255.67,270.391,255.836,273.318"/>
	<path clip-path="url(#SVGID_92_)" fill="#396F8E" d="M252.553,292.545c-2.396,4.229-4.209,4.846-4.209,4.846
		s-1.283,0.771-10.396-1.105c-9.111-1.873-15.014-7.613-15.014-7.613c0,0.014,5.988,4.529,17.035,3.355
		c11.223-1.193,14.066-6.285,14.066-6.285C254.032,285.752,254.758,288.654,252.553,292.545"/>
	<path clip-path="url(#SVGID_92_)" fill="#396F8E" d="M228.473,312.123c-3.328,0.354-4.469-0.385-4.469-0.385
		s-0.984-0.395-4.072-6.059c-3.092-5.662-2.678-11.1-2.678-11.1c-0.008,0.002,0.27,5.008,5.852,10.527
		c5.67,5.611,9.654,5.16,9.654,5.16C232.752,310.268,231.532,311.797,228.473,312.123"/>

		<line clip-path="url(#SVGID_92_)" fill="none" stroke="#396F8E" stroke-miterlimit="10" x1="17.968" y1="280.291" x2="17.968" y2="307.127"/>
	<path clip-path="url(#SVGID_92_)" fill="#396F8E" d="M12.39,304.723c0,1.703-1.57,3.084-3.51,3.084h-26.617
		c-1.939,0-3.512-1.381-3.512-3.084v-22.744c0-1.703,1.573-3.084,3.512-3.084H8.88c1.94,0,3.51,1.381,3.51,3.084V304.723z"/>
	<polygon clip-path="url(#SVGID_92_)" fill="#FFFFFF" points="-6.091,285.061 -4.446,285.061 -4.446,301.648 -5.8,301.648
		-5.8,288.355 -5.614,286.672 -5.695,286.672 -6.251,288.26 -11.183,297.668 -12.271,297.668 -17.204,288.26 -17.761,286.672
		-17.839,286.672 -17.654,288.355 -17.654,301.648 -19.007,301.648 -19.007,285.061 -17.362,285.061 -11.739,296.104 	"/>
	<path clip-path="url(#SVGID_92_)" fill="#FFFFFF" d="M9.71,298.521c0,1.563-1.273,2.535-2.943,2.961
		c-1.432,0.355-3.793,0.355-5.2,0.023c-1.722-0.402-3.076-1.398-3.101-2.961v-10.404c0.025-1.729,1.644-2.748,3.58-3.08
		c1.459-0.236,3.58-0.213,4.959,0.189c1.564,0.475,2.705,1.422,2.705,2.891H8.384c0-0.875-0.77-1.469-1.778-1.777
		c-1.218-0.355-3.048-0.355-4.322-0.141c-1.351,0.236-2.492,0.877-2.492,1.918v10.404c0,0.924,0.928,1.539,2.121,1.824
		c1.246,0.285,3.234,0.285,4.483-0.023c1.14-0.285,1.988-0.9,1.988-1.801L9.71,298.521z"/>
	<path clip-path="url(#SVGID_92_)" fill="#112F40" d="M26.438,299.369c0.022,1.488,1.465,2.232,2.76,2.473
		c1.271,0.24,3.05,0.24,4.298-0.168c1.103-0.385,1.942-1.105,1.942-2.305h0.385c0,1.344-0.911,2.207-2.233,2.641
		c-1.248,0.408-3.168,0.432-4.463,0.191c-1.489-0.289-3.024-1.152-3.047-2.832v-0.217v-10.609v-0.191
		c0.022-1.703,1.558-2.568,3.047-2.855c1.295-0.24,3.215-0.217,4.463,0.191c1.322,0.457,2.233,1.32,2.233,2.664h-0.385
		c0-1.225-0.84-1.943-1.942-2.305c-1.248-0.406-3.027-0.432-4.298-0.191c-1.295,0.24-2.737,1.008-2.76,2.496V299.369z"/>
	<path clip-path="url(#SVGID_92_)" fill="#112F40" d="M38.149,288.207c0-4.008,9.746-4.008,9.746,0v11.258
		c0,3.984-9.746,3.984-9.746,0V288.207z M47.487,288.207c0-1.824-2.256-2.639-4.515-2.639c-2.207,0.023-4.438,0.84-4.438,2.639
		v11.234c0,1.824,2.231,2.615,4.438,2.641c2.259,0,4.515-0.793,4.515-2.641V288.207z"/>
	<polygon clip-path="url(#SVGID_92_)" fill="#112F40" points="60.136,302.225 59.488,302.225 50.701,285.641 50.701,302.225
		50.343,302.225 50.343,285.4 50.966,285.4 59.751,301.961 59.751,285.4 60.136,285.4 	"/>
	<path clip-path="url(#SVGID_92_)" fill="#112F40" d="M62.294,299.152c0,1.201,0.744,2.186,1.942,2.568
		c1.658,0.576,4.009,0.457,5.377-0.695c1.44-1.201,1.802-3.816,0.65-5.377c-0.699-0.961-1.97-1.416-3.408-1.775
		c-1.778-0.434-3.89-0.84-4.539-2.832c-0.455-1.465-0.215-3.457,0.914-4.514c1.416-1.295,3.528-1.512,5.28-0.912
		c1.222,0.408,2.23,1.273,2.23,2.664h-0.384c0-1.223-0.888-1.967-1.967-2.328c-1.632-0.551-3.623-0.383-4.897,0.84
		c-0.984,0.938-1.248,2.762-0.816,4.057c0.601,1.873,2.546,2.232,4.201,2.664c1.584,0.408,2.953,0.84,3.722,1.896
		c1.248,1.705,0.815,4.584-0.744,5.904c-1.489,1.225-3.938,1.369-5.737,0.77c-1.369-0.457-2.209-1.561-2.209-2.93H62.294z"/>
	<path clip-path="url(#SVGID_92_)" fill="#112F40" d="M74.534,301.506c-0.865-0.529-1.369-1.32-1.369-2.328v-13.754h0.359v13.754
		c0,0.887,0.456,1.559,1.2,2.016c0.769,0.48,2.039,0.719,3.336,0.719c1.345,0.025,2.688-0.215,3.505-0.719
		c0.744-0.457,1.201-1.129,1.201-2.016v-13.754h0.359v13.754c0,1.008-0.504,1.799-1.367,2.328c-0.889,0.527-2.329,0.791-3.745,0.768
		C76.669,302.25,75.348,302.01,74.534,301.506"/>
	<path clip-path="url(#SVGID_92_)" fill="#112F40" d="M85.958,299.201c0,1.969,1.775,2.664,3.408,2.664h3.862v0.359h-3.862
		c-1.801,0-3.793-0.791-3.793-2.977V285.4h0.359L85.958,299.201z"/>
	<polygon clip-path="url(#SVGID_92_)" fill="#112F40" points="104.582,285.424 104.582,285.809 99.71,285.809 99.71,302.225
		99.325,302.225 99.325,285.809 94.452,285.809 94.452,285.424 	"/>
	<path clip-path="url(#SVGID_92_)" fill="#112F40" d="M106.357,302.223v-13.967c0-1.008,0.527-1.729,1.369-2.232
		c1.68-1.01,5.375-1.01,7.057,0c0.84,0.504,1.367,1.225,1.367,2.232v13.967h-0.385v-6.91h-0.432h-8.184h-0.434v0.432v6.479H106.357z
		 M106.716,294.953h0.434h8.184h0.432v-6.697c0.025-0.84-0.479-1.488-1.176-1.92c-1.584-0.961-5.111-0.961-6.695,0
		c-0.697,0.432-1.178,1.08-1.178,1.92V294.953z"/>
	<path clip-path="url(#SVGID_92_)" fill="#396F8E" d="M138.296,288.496h0.023v13.729h-1.201v-6.576h-7.775v6.576h-1.201v-13.729
		c0-1.104,0.602-1.945,1.488-2.473c1.752-1.057,5.449-1.057,7.178,0C137.697,286.551,138.296,287.393,138.296,288.496
		 M129.343,288.496v5.953h7.775v-5.953c0-0.625-0.383-1.129-0.936-1.465c-1.367-0.84-4.584-0.816-5.928,0
		C129.703,287.367,129.343,287.871,129.343,288.496"/>
	<path clip-path="url(#SVGID_92_)" fill="#396F8E" d="M146.144,301.17c1.104,0,2.207-0.121,2.854-0.529
		c0.578-0.336,0.938-0.889,0.938-1.561v-13.656h1.2v13.656c0,1.105-0.576,1.969-1.513,2.545c-0.814,0.504-2.135,0.768-3.455,0.744
		h-0.24c-1.32,0.023-2.641-0.24-3.457-0.744c-0.936-0.576-1.512-1.439-1.512-2.545v-13.656h1.201v13.656
		c0,0.672,0.359,1.178,0.936,1.514c0.6,0.383,1.633,0.576,2.688,0.576H146.144z"/>
	<path clip-path="url(#SVGID_92_)" fill="#396F8E" d="M153.606,302.225V285.4h5.832c1.943,0,4.369,0.982,4.369,3.24v10.32
		c0,2.305-2.473,3.264-4.537,3.264H153.606z M162.583,288.641c0-1.441-1.92-2.041-3.168-2.041h-0.096h-0.025h-4.465v14.402h4.441
		c1.129,0,2.832-0.385,3.217-1.537C162.655,298.984,162.583,290.68,162.583,288.641"/>
	<rect x="166.614" y="285.4" clip-path="url(#SVGID_92_)" fill="#396F8E" width="1.199" height="16.824"/>
	<polygon clip-path="url(#SVGID_92_)" fill="#396F8E" points="169.926,285.424 180.27,285.424 180.27,286.48 175.709,286.48
		175.663,302.225 174.438,302.225 174.487,286.48 169.926,286.48 	"/>
	<rect x="182.454" y="285.4" clip-path="url(#SVGID_92_)" fill="#396F8E" width="1.199" height="16.824"/>
	<path clip-path="url(#SVGID_92_)" fill="#396F8E" d="M191.213,302.418l-3.863-3.408c-0.721-0.648-0.912-1.273-0.912-2.186V285.4
		h1.223v11.449c0,0.623,0,0.768,0.48,1.223l3.336,2.977l3.338-2.977c0.455-0.455,0.455-0.6,0.455-1.223V285.4h1.225v11.424
		c0,0.912-0.191,1.537-0.912,2.186l-3.865,3.408H191.213z"/>
	<path clip-path="url(#SVGID_92_)" fill="#396F8E" d="M209.045,288.496h0.025v13.729h-1.201v-6.576h-7.775v6.576h-1.201v-13.729
		c0-1.104,0.6-1.945,1.488-2.473c1.752-1.057,5.449-1.057,7.178,0C208.446,286.551,209.045,287.393,209.045,288.496
		 M200.094,288.496v5.953h7.775v-5.953c0-0.625-0.383-1.129-0.936-1.465c-1.367-0.84-4.584-0.816-5.928,0
		C200.454,287.367,200.094,287.871,200.094,288.496"/>
</g>
</svg>
