<?xml version="1.0" encoding="utf-8"?>
<!-- Generator: Adobe Illustrator 15.1.0, SVG Export Plug-In . SVG Version: 6.00 Build 0)  -->
<!DOCTYPE svg PUBLIC "-//W3C//DTD SVG 1.1//EN" "http://www.w3.org/Graphics/SVG/1.1/DTD/svg11.dtd">
<svg version="1.1" id="Capa_1" xmlns="http://www.w3.org/2000/svg" xmlns:xlink="http://www.w3.org/1999/xlink" x="0px" y="0px"
	 width="340.646px" height="193.045px" viewBox="0 0 340.646 193.045" enable-background="new 0 0 340.646 193.045"
	 xml:space="preserve">
<g>
	<defs>
		<rect id="SVGID_1_" x="-384.252" y="-681.213" width="1045.252" height="1478.275"/>
	</defs>
	<defs>
		<rect id="SVGID_2_" x="-384.252" y="-681.213" width="1045.252" height="1478.275"/>
	</defs>
	<defs>
		<rect id="SVGID_3_" x="-384.252" y="-681.213" width="1045.252" height="1478.275"/>
	</defs>
	<defs>
		<rect id="SVGID_4_" x="-2.691" width="343.337" height="193.045"/>
	</defs>
	<clipPath id="SVGID_5_">
		<use xlink:href="#SVGID_1_"  overflow="visible"/>
	</clipPath>
	<clipPath id="SVGID_6_" clip-path="url(#SVGID_5_)">
		<use xlink:href="#SVGID_2_"  overflow="visible"/>
	</clipPath>
	<clipPath id="SVGID_7_" clip-path="url(#SVGID_6_)">
		<use xlink:href="#SVGID_3_"  overflow="visible"/>
	</clipPath>
	<clipPath id="SVGID_8_" clip-path="url(#SVGID_7_)">
		<use xlink:href="#SVGID_4_"  overflow="visible"/>
	</clipPath>
	<path clip-path="url(#SVGID_8_)" fill="#396F8E" d="M194.645,43.818c3.271-4.806,5.973-6.269,5.973-6.269
		s17.01,0.969,30.596,14.914c13.578,13.953,17.609,29.155,17.609,29.155c0.02-0.011-5.248-14.64-25.555-25.824
		c-20.625-11.362-32.598-4.404-32.598-4.404S191.635,48.24,194.645,43.818"/>
	<path clip-path="url(#SVGID_8_)" fill="#396F8E" d="M214.533,22.486c3.439-3.305,6.254-3.8,6.254-3.8s14.322,4.215,23.809,20.286
		c9.486,16.071,10.102,31.589,10.102,31.589c0.031-0.013-1.824-15.199-17.932-29.827c-16.361-14.856-28.805-11.104-28.805-11.104
		S211.133,25.744,214.533,22.486"/>
	<path clip-path="url(#SVGID_8_)" fill="#396F8E" d="M233.709,9.877c5.01-2.803,7.676-2.564,7.676-2.564s11.688,5.828,17.686,23.225
		c6,17.399,3.666,32.594,3.666,32.594c0.029-0.006,1.119-15.11-11.436-32.356c-12.752-17.521-25.205-15.588-25.205-15.588
		S229.393,12.29,233.709,9.877"/>
	<path clip-path="url(#SVGID_8_)" fill="#B9C3C8" d="M257.277,1.649c4.229-1.221,7.793,0.177,7.793,0.177s10.08,8.53,11.369,26.186
		c1.281,17.654-4.643,31.394-4.643,31.394c0.023,0,4.773-13.927-2.654-32.899c-7.547-19.274-20.537-21.637-20.537-21.637
		S252.191,3.109,257.277,1.649"/>
	<path clip-path="url(#SVGID_8_)" fill="#B9C3C8" d="M281.926,1.563c4.24,0.431,7.393,2.557,7.393,2.557s7.826,12.192,4.225,28.448
		c-3.605,16.252-12.908,27.203-12.908,27.203c0.018,0.009,8.275-11.404,6.469-30.351c-1.826-19.253-12.816-27.676-12.816-27.676
		S277.957,1.166,281.926,1.563"/>
	<path clip-path="url(#SVGID_8_)" fill="#B9C3C8" d="M303.818,9.067c4.502,2.156,6.828,5.504,6.828,5.504s4.271,11.778-3.09,25.989
		c-7.369,14.212-18.953,21.936-18.953,21.936c0.02,0.014,10.703-8.427,13.5-26.6c2.846-18.467-5.367-29.204-5.367-29.204
		S299.74,7.115,303.818,9.067"/>
	<path clip-path="url(#SVGID_8_)" fill="#B9C3C8" d="M325.266,27.613c3.141,3.582,3.777,7.243,3.777,7.243s1.176,9.977-9.736,20.381
		c-10.918,10.413-24.072,13.554-24.072,13.554c0.014,0.017,12.51-4.064,20.17-19.583c7.775-15.758,2.688-28.296,2.688-28.296
		C318.076,20.93,322.488,24.438,325.266,27.613"/>
	<path clip-path="url(#SVGID_8_)" fill="#396F8E" d="M321.307,117.558c-4.027,3.023-5.959,2.774-5.959,2.774
		s-1.506,0.149-9.008-6.011c-7.504-6.155-10.391-14.589-10.391-14.589c-0.004,0.012,3.49,7.285,14.086,11.359
		c10.773,4.139,15.592,0.478,15.592,0.478C325.615,111.577,325.018,114.777,321.307,117.558"/>
	<path clip-path="url(#SVGID_8_)" fill="#396F8E" d="M336.025,50.581c0.924,3.662,0.424,8.221,0.424,8.221
		s-2.074,7.49-14.418,13.803c-12.346,6.318-23.404,5.12-23.404,5.12c0.008,0.021,10.961,0.124,22.953-11.989
		c12.182-12.323,10.975-23.661,10.975-23.661S334.902,46.12,336.025,50.581"/>
	<path clip-path="url(#SVGID_8_)" fill="#396F8E" d="M337.99,74.828c0.205,3.953-1.371,7.726-1.371,7.726s-1.918,5.857-14.59,7.928
		c-12.678,2.069-23.303-2.455-23.303-2.455c0.004,0.018,10.637,3.496,23.596-4.084c13.168-7.699,14.668-18.835,14.668-18.835
		S337.795,70.958,337.99,74.828"/>
	<path clip-path="url(#SVGID_8_)" fill="#396F8E" d="M334.061,100.229c-2.875,5.585-5.043,6.401-5.043,6.401
		s-1.539,1.019-12.461-1.461c-10.922-2.478-17.992-10.057-17.992-10.057c0,0.017,7.176,5.981,20.416,4.43
		c13.447-1.577,16.859-8.302,16.859-8.302C335.828,91.254,336.701,95.089,334.061,100.229"/>
	<path clip-path="url(#SVGID_8_)" fill="#396F8E" d="M305.203,126.097c-3.99,0.467-5.359-0.512-5.359-0.512
		s-1.174-0.521-4.875-8.002c-3.705-7.482-3.207-14.665-3.207-14.665c-0.014,0,0.322,6.617,7.014,13.911
		c6.789,7.408,11.566,6.815,11.566,6.815C310.328,123.645,308.867,125.664,305.203,126.097"/>
	
		<line clip-path="url(#SVGID_8_)" fill="none" stroke="#396F8E" stroke-width="2" stroke-miterlimit="10" x1="174.896" y1="9.231" x2="174.896" y2="126.107"/>
	<path clip-path="url(#SVGID_8_)" fill="#396F8E" d="M150.605,115.636c0,7.415-6.844,13.43-15.287,13.43H19.394
		c-8.446,0-15.294-6.015-15.294-13.43V16.581c0-7.417,6.849-13.434,15.294-13.434h115.925c8.443,0,15.287,6.016,15.287,13.434
		V115.636z"/>
	<polygon clip-path="url(#SVGID_8_)" fill="#FFFFFF" points="70.12,30.003 77.279,30.003 77.279,102.247 71.386,102.247 
		71.386,44.353 72.195,37.023 71.843,37.023 69.42,43.938 47.942,84.913 43.206,84.913 21.721,43.938 19.294,37.023 18.954,37.023 
		19.761,44.353 19.761,102.247 13.867,102.247 13.867,30.003 21.029,30.003 45.518,78.098 	"/>
	<path clip-path="url(#SVGID_8_)" fill="#FFFFFF" d="M138.932,88.627c0,6.804-5.546,11.044-12.816,12.9
		c-6.237,1.546-16.521,1.546-22.643,0.102c-7.503-1.755-13.4-6.094-13.508-12.899V43.419c0.108-7.526,7.16-11.968,15.589-13.416
		c6.353-1.029,15.594-0.925,21.598,0.826c6.815,2.065,11.781,6.194,11.781,12.589h-5.776c0-3.809-3.35-6.396-7.74-7.744
		c-5.306-1.547-13.274-1.547-18.823-0.609c-5.886,1.029-10.853,3.816-10.853,8.353v45.311c0,4.024,4.038,6.701,9.237,7.947
		c5.428,1.241,14.087,1.241,19.522-0.102c4.967-1.242,8.658-3.92,8.658-7.845L138.932,88.627z"/>
	<path clip-path="url(#SVGID_8_)" fill="#112F40" d="M3.409,184.583c0.04,2.672,2.521,3.997,4.747,4.433
		c2.189,0.435,5.248,0.435,7.396-0.299c1.9-0.69,3.346-1.986,3.346-4.134h0.659c0,2.408-1.568,3.956-3.836,4.737
		c-2.149,0.726-5.457,0.77-7.687,0.343c-2.561-0.519-5.2-2.067-5.247-5.08v-0.395v-19.016v-0.343
		c0.047-3.052,2.686-4.609,5.247-5.124c2.229-0.426,5.538-0.385,7.687,0.345c2.269,0.822,3.836,2.367,3.836,4.779h-0.659
		c0-2.196-1.446-3.489-3.346-4.133c-2.148-0.735-5.206-0.771-7.396-0.345c-2.226,0.431-4.707,1.805-4.747,4.478V184.583z"/>
	<path clip-path="url(#SVGID_8_)" fill="#112F40" d="M23.565,164.569c0-7.188,16.771-7.188,16.771,0v20.182
		c0,7.146-16.771,7.146-16.771,0V164.569z M39.633,164.569c0-3.271-3.879-4.727-7.765-4.727c-3.802,0.041-7.644,1.498-7.644,4.727
		v20.14c0,3.276,3.842,4.696,7.644,4.737c3.885,0,7.765-1.42,7.765-4.737V164.569z"/>
	<polygon clip-path="url(#SVGID_8_)" fill="#112F40" points="61.403,189.705 60.288,189.705 45.169,159.961 45.169,189.705 
		44.551,189.705 44.551,159.539 45.624,159.539 60.741,189.226 60.741,159.539 61.403,159.539 	"/>
	<path clip-path="url(#SVGID_8_)" fill="#112F40" d="M65.121,184.188c0,2.157,1.279,3.924,3.34,4.613
		c2.854,1.033,6.904,0.823,9.255-1.248c2.483-2.155,3.106-6.842,1.117-9.645c-1.201-1.724-3.39-2.534-5.866-3.182
		c-3.058-0.775-6.693-1.505-7.808-5.079c-0.789-2.624-0.373-6.193,1.576-8.092c2.433-2.32,6.071-2.712,9.09-1.631
		c2.097,0.729,3.837,2.28,3.837,4.771h-0.663c0-2.188-1.527-3.522-3.384-4.173c-2.809-0.984-6.238-0.681-8.437,1.506
		c-1.684,1.687-2.141,4.952-1.403,7.276c1.036,3.359,4.386,3.995,7.232,4.775c2.728,0.728,5.084,1.504,6.404,3.396
		c2.15,3.06,1.41,8.223-1.281,10.595c-2.559,2.187-6.769,2.446-9.871,1.374c-2.357-0.819-3.803-2.798-3.803-5.258H65.121z"/>
	<path clip-path="url(#SVGID_8_)" fill="#112F40" d="M86.19,188.415c-1.495-0.947-2.362-2.37-2.362-4.174v-24.66h0.617v24.66
		c0,1.585,0.791,2.791,2.076,3.613c1.313,0.862,3.5,1.29,5.737,1.29c2.311,0.046,4.631-0.389,6.029-1.29
		c1.279-0.822,2.072-2.028,2.072-3.613v-24.66h0.617v24.66c0,1.804-0.87,3.227-2.354,4.174c-1.535,0.949-4.005,1.42-6.455,1.373
		C89.864,189.747,87.59,189.32,86.19,188.415"/>
	<path clip-path="url(#SVGID_8_)" fill="#112F40" d="M105.85,184.281c0,3.53,3.059,4.775,5.867,4.775h6.646v0.648h-6.646
		c-3.1,0-6.533-1.422-6.533-5.334v-24.832h0.624L105.85,184.281z"/>
	<polygon clip-path="url(#SVGID_8_)" fill="#112F40" points="137.902,159.581 137.902,160.268 129.522,160.268 129.522,189.705 
		128.856,189.705 128.856,160.268 120.469,160.268 120.469,159.581 	"/>
	<path clip-path="url(#SVGID_8_)" fill="#112F40" d="M140.956,189.705V164.65c0-1.801,0.905-3.094,2.356-3.995
		c2.894-1.811,9.256-1.811,12.143,0c1.447,0.901,2.359,2.194,2.359,3.995v25.055h-0.662v-12.397h-0.744H142.32h-0.743v0.773v11.624
		H140.956z M141.577,176.666h0.743h14.088h0.744V164.65c0.051-1.497-0.818-2.659-2.029-3.433c-2.721-1.729-8.794-1.729-11.52,0
		c-1.202,0.773-2.026,1.936-2.026,3.433V176.666z"/>
	<path clip-path="url(#SVGID_8_)" fill="#396F8E" d="M208.279,164.234h0.039v24.617h-2.152v-11.798h-13.941v11.798h-2.15v-24.617
		c0-1.979,1.072-3.489,2.66-4.437c3.148-1.893,9.779-1.893,12.879,0C207.205,160.745,208.279,162.254,208.279,164.234
		 M192.225,164.234v10.675h13.941v-10.675c0-1.127-0.688-2.022-1.676-2.624c-2.457-1.509-8.223-1.465-10.627,0
		C192.873,162.211,192.225,163.107,192.225,164.234"/>
	<path clip-path="url(#SVGID_8_)" fill="#396F8E" d="M222.352,186.954c1.975,0,3.961-0.218,5.119-0.943
		c1.025-0.608,1.678-1.595,1.678-2.801v-24.486h2.154v24.486c0,1.983-1.041,3.526-2.717,4.563c-1.457,0.902-3.832,1.381-6.195,1.34
		h-0.432c-2.367,0.041-4.729-0.438-6.191-1.34c-1.684-1.037-2.719-2.58-2.719-4.563v-24.486h2.16v24.486
		c0,1.206,0.637,2.11,1.666,2.716c1.084,0.688,2.936,1.028,4.83,1.028H222.352z"/>
	<path clip-path="url(#SVGID_8_)" fill="#396F8E" d="M235.729,188.851v-30.168h10.459c3.482,0,7.836,1.761,7.836,5.81v18.503
		c0,4.135-4.438,5.855-8.135,5.855H235.729z M251.83,164.493c0-2.579-3.449-3.666-5.689-3.666h-0.172h-0.039h-8.004v25.828h7.963
		c2.014,0,5.074-0.686,5.766-2.757C251.955,183.042,251.83,168.144,251.83,164.493"/>
	<rect x="259.055" y="158.683" clip-path="url(#SVGID_8_)" fill="#396F8E" width="2.146" height="30.168"/>
	<polygon clip-path="url(#SVGID_8_)" fill="#396F8E" points="264.988,158.723 283.535,158.723 283.535,160.619 275.359,160.619 
		275.277,188.851 273.09,188.851 273.17,160.619 264.988,160.619 	"/>
	<rect x="287.453" y="158.683" clip-path="url(#SVGID_8_)" fill="#396F8E" width="2.152" height="30.168"/>
	<path clip-path="url(#SVGID_8_)" fill="#396F8E" d="M303.164,189.197l-6.926-6.11c-1.293-1.169-1.641-2.283-1.641-3.923v-20.48
		h2.199v20.525c0,1.118,0,1.375,0.854,2.199l5.98,5.33l5.99-5.33c0.813-0.824,0.813-1.081,0.813-2.199v-20.525h2.199v20.48
		c0,1.64-0.344,2.754-1.633,3.923l-6.934,6.11H303.164z"/>
	<path clip-path="url(#SVGID_8_)" fill="#396F8E" d="M335.139,164.234h0.043v24.617h-2.154v-11.798h-13.941v11.798h-2.152v-24.617
		c0-1.979,1.078-3.489,2.662-4.437c3.146-1.893,9.777-1.893,12.873,0C334.057,160.745,335.139,162.254,335.139,164.234
		 M319.086,164.234v10.675h13.941v-10.675c0-1.127-0.689-2.022-1.68-2.626c-2.445-1.507-8.221-1.463-10.629,0
		C319.732,162.211,319.086,163.107,319.086,164.234"/>
	<path clip-path="url(#SVGID_8_)" fill="#396F8E" d="M207.523-445.112c4.793-6.39,8.748-8.334,8.748-8.334
		s24.926,1.289,44.832,19.822c19.898,18.543,25.801,38.745,25.801,38.745c0.031-0.012-7.693-19.458-37.441-34.32
		c-30.219-15.1-47.76-5.85-47.76-5.85S203.111-439.239,207.523-445.112"/>
	<path clip-path="url(#SVGID_8_)" fill="#396F8E" d="M236.66-473.464c5.049-4.397,9.17-5.048,9.17-5.048s20.98,5.6,34.887,26.958
		c13.9,21.355,14.803,41.983,14.803,41.983c0.037-0.019-2.678-20.202-26.277-39.641c-23.971-19.749-42.205-14.76-42.205-14.76
		S231.68-469.136,236.66-473.464"/>
	<path clip-path="url(#SVGID_8_)" fill="#396F8E" d="M264.76-490.224c7.352-3.721,11.252-3.406,11.252-3.406
		s17.125,7.747,25.914,30.871c8.781,23.123,5.375,43.315,5.375,43.315c0.029-0.006,1.633-20.082-16.764-43.006
		c-18.68-23.286-36.922-20.713-36.922-20.713S258.43-487.014,264.76-490.224"/>
	<path clip-path="url(#SVGID_8_)" fill="#396F8E" d="M393.113-347.115c-5.906,4.019-8.729,3.688-8.729,3.688
		s-2.213,0.196-13.205-7.979c-10.99-8.184-15.221-19.396-15.221-19.396c-0.018,0.019,5.117,9.682,20.645,15.097
		c15.781,5.496,22.838,0.636,22.838,0.636C399.428-355.06,398.543-350.81,393.113-347.115"/>
	<path clip-path="url(#SVGID_8_)" fill="#396F8E" d="M414.684-436.127c1.346,4.871,0.617,10.929,0.617,10.929
		s-3.039,9.956-21.121,18.346c-18.09,8.392-34.301,6.799-34.301,6.799c0.012,0.033,16.055,0.171,33.633-15.935
		c17.846-16.371,16.08-31.443,16.08-31.443S413.033-442.061,414.684-436.127"/>
	<path clip-path="url(#SVGID_8_)" fill="#396F8E" d="M417.566-403.904c0.291,5.254-2.02,10.274-2.02,10.274
		s-2.813,7.783-21.377,10.539c-18.576,2.741-34.141-3.271-34.141-3.271c0.002,0.028,15.582,4.649,34.57-5.425
		c19.295-10.234,21.498-25.03,21.498-25.03S417.273-409.045,417.566-403.904"/>
	<path clip-path="url(#SVGID_8_)" fill="#396F8E" d="M411.801-370.144c-4.209,7.426-7.391,8.511-7.391,8.511
		s-2.256,1.352-18.254-1.944c-16.002-3.288-26.365-13.368-26.365-13.368c0,0.026,10.514,7.952,29.912,5.893
		c19.707-2.096,24.701-11.038,24.701-11.038C414.396-382.072,415.672-376.975,411.801-370.144"/>
	<path clip-path="url(#SVGID_8_)" fill="#396F8E" d="M369.518-335.767c-5.844,0.622-7.848-0.676-7.848-0.676
		s-1.729-0.69-7.15-10.636c-5.43-9.941-4.701-19.492-4.701-19.492c-0.012,0.003,0.475,8.793,10.273,18.486
		c9.959,9.855,16.951,9.063,16.951,9.063C377.033-339.022,374.889-336.34,369.518-335.767"/>
	
		<line clip-path="url(#SVGID_8_)" fill="none" stroke="#396F8E" stroke-miterlimit="10" x1="-0.112" y1="-391.661" x2="-0.112" y2="-344.54"/>
	<path clip-path="url(#SVGID_8_)" fill="#396F8E" d="M-9.907-348.761c0,2.991-2.756,5.415-6.163,5.415h-46.737
		c-3.404,0-6.167-2.424-6.167-5.415v-39.937c0-2.988,2.763-5.416,6.167-5.416h46.737c3.406,0,6.163,2.428,6.163,5.416V-348.761z"/>
	<polygon clip-path="url(#SVGID_8_)" fill="#FFFFFF" points="-42.356,-383.285 -39.468,-383.285 -39.468,-354.158 -41.846,-354.158 
		-41.846,-377.501 -41.518,-380.457 -41.662,-380.457 -42.637,-377.667 -51.296,-361.148 -53.208,-361.148 -61.869,-377.667 
		-62.847,-380.457 -62.984,-380.457 -62.659,-377.501 -62.659,-354.158 -65.035,-354.158 -65.035,-383.285 -62.147,-383.285 
		-52.273,-363.895 	"/>
	<path clip-path="url(#SVGID_8_)" fill="#FFFFFF" d="M-14.612-359.651c0,2.746-2.235,4.453-5.167,5.201
		c-2.515,0.624-6.66,0.624-9.132,0.042c-3.022-0.708-5.4-2.457-5.445-5.203v-18.265c0.045-3.037,2.887-4.826,6.287-5.409
		c2.562-0.416,6.286-0.375,8.708,0.332c2.746,0.834,4.749,2.496,4.749,5.077h-2.328c0-1.539-1.353-2.581-3.122-3.121
		c-2.138-0.623-5.353-0.623-7.589-0.25c-2.373,0.417-4.375,1.54-4.375,3.371v18.265c0,1.625,1.629,2.706,3.724,3.206
		c2.188,0.5,5.679,0.5,7.873-0.041c2.001-0.501,3.49-1.583,3.49-3.165L-14.612-359.651z"/>
	<path clip-path="url(#SVGID_8_)" fill="#112F40" d="M14.761-358.162c0.041,2.612,2.572,3.919,4.847,4.342
		c2.232,0.421,5.353,0.421,7.544-0.294c1.938-0.676,3.413-1.94,3.413-4.047h0.675c0,2.361-1.601,3.877-3.92,4.638
		c-2.191,0.715-5.562,0.755-7.838,0.334c-2.614-0.505-5.31-2.02-5.35-4.972v-0.378v-18.63v-0.336c0.04-2.993,2.735-4.51,5.35-5.015
		c2.276-0.421,5.647-0.379,7.838,0.337c2.319,0.801,3.92,2.318,3.92,4.678h-0.675c0-2.15-1.475-3.414-3.413-4.046
		c-2.191-0.716-5.312-0.758-7.544-0.337c-2.274,0.422-4.806,1.77-4.847,4.383V-358.162z"/>
	<path clip-path="url(#SVGID_8_)" fill="#112F40" d="M35.325-377.761c0-7.037,17.113-7.037,17.113,0v19.769
		c0,6.994-17.113,6.994-17.113,0V-377.761z M51.722-377.761c0-3.203-3.961-4.635-7.926-4.635c-3.875,0.042-7.794,1.475-7.794,4.635
		v19.725c0,3.205,3.919,4.595,7.794,4.637c3.965,0,7.926-1.392,7.926-4.637V-377.761z"/>
	<polygon clip-path="url(#SVGID_8_)" fill="#112F40" points="73.931,-353.147 72.792,-353.147 57.366,-382.269 57.366,-353.147 
		56.735,-353.147 56.735,-382.69 57.829,-382.69 73.256,-353.611 73.256,-382.69 73.931,-382.69 	"/>
	<path clip-path="url(#SVGID_8_)" fill="#112F40" d="M77.721-358.541c0,2.106,1.306,3.835,3.412,4.508
		c2.908,1.014,7.038,0.802,9.44-1.222c2.528-2.107,3.164-6.7,1.139-9.439c-1.223-1.688-3.456-2.488-5.983-3.119
		c-3.121-0.76-6.828-1.475-7.968-4.973c-0.798-2.573-0.38-6.07,1.603-7.924c2.486-2.275,6.196-2.657,9.273-1.602
		c2.146,0.716,3.916,2.232,3.916,4.677H91.88c0-2.149-1.56-3.455-3.457-4.088c-2.864-0.968-6.361-0.673-8.597,1.475
		c-1.729,1.644-2.193,4.847-1.435,7.122c1.056,3.288,4.469,3.921,7.376,4.679c2.781,0.717,5.186,1.475,6.534,3.331
		c2.191,2.992,1.434,8.048-1.308,10.366c-2.612,2.151-6.913,2.402-10.072,1.351c-2.404-0.801-3.877-2.742-3.877-5.143H77.721z"/>
	<path clip-path="url(#SVGID_8_)" fill="#112F40" d="M99.213-354.41c-1.519-0.927-2.404-2.317-2.404-4.088v-24.151h0.631v24.151
		c0,1.559,0.801,2.737,2.11,3.538c1.346,0.844,3.58,1.264,5.857,1.264c2.359,0.044,4.718-0.379,6.153-1.264
		c1.306-0.801,2.11-1.979,2.11-3.538v-24.151h0.63v24.151c0,1.771-0.884,3.161-2.4,4.088c-1.561,0.926-4.089,1.39-6.579,1.349
		C102.961-353.104,100.643-353.525,99.213-354.41"/>
	<path clip-path="url(#SVGID_8_)" fill="#112F40" d="M119.271-358.457c0,3.457,3.118,4.677,5.984,4.677h6.784v0.632h-6.784
		c-3.161,0-6.659-1.391-6.659-5.226v-24.316h0.631L119.271-358.457z"/>
	<polygon clip-path="url(#SVGID_8_)" fill="#112F40" points="151.971,-382.649 151.971,-381.973 143.419,-381.973 143.419,-353.147 
		142.743,-353.147 142.743,-381.973 134.187,-381.973 134.187,-382.649 	"/>
	<path clip-path="url(#SVGID_8_)" fill="#112F40" d="M155.092-353.148v-24.526c0-1.772,0.924-3.035,2.402-3.92
		c2.951-1.772,9.438-1.772,12.391,0c1.475,0.885,2.4,2.148,2.4,3.92v24.526h-0.676v-12.139h-0.758h-14.369h-0.76v0.76v11.378
		H155.092z M155.723-365.917h0.76h14.369h0.758v-11.757c0.045-1.478-0.84-2.615-2.063-3.374c-2.781-1.686-8.977-1.686-11.756,0
		c-1.229,0.759-2.068,1.896-2.068,3.374V-365.917z"/>
	<path clip-path="url(#SVGID_8_)" fill="#396F8E" d="M211.17-377.254h0.043v24.106h-2.109v-11.546h-13.652v11.546h-2.107v-24.106
		c0-1.939,1.057-3.414,2.609-4.341c3.078-1.854,9.57-1.854,12.604,0C210.119-380.668,211.17-379.193,211.17-377.254
		 M195.451-377.254v10.452h13.652v-10.452c0-1.096-0.672-1.981-1.643-2.571c-2.4-1.474-8.049-1.432-10.408,0
		C196.082-379.235,195.451-378.35,195.451-377.254"/>
	<path clip-path="url(#SVGID_8_)" fill="#396F8E" d="M224.951-355c1.936,0,3.877-0.21,5.014-0.926
		c1.014-0.59,1.645-1.562,1.645-2.741v-23.981h2.107v23.981c0,1.94-1.012,3.457-2.654,4.469c-1.434,0.885-3.752,1.349-6.07,1.305
		h-0.422c-2.318,0.044-4.637-0.42-6.07-1.305c-1.641-1.012-2.654-2.528-2.654-4.469v-23.981h2.109v23.981
		c0,1.179,0.631,2.067,1.645,2.656c1.053,0.674,2.865,1.011,4.717,1.011H224.951z"/>
	<path clip-path="url(#SVGID_8_)" fill="#396F8E" d="M238.055-353.147v-29.542h10.242c3.41,0,7.67,1.726,7.67,5.689v18.121
		c0,4.048-4.342,5.732-7.967,5.732H238.055z M253.816-377.001c0-2.528-3.369-3.582-5.563-3.582h-0.168h-0.043h-7.84v25.286H248
		c1.984,0,4.973-0.674,5.648-2.696C253.943-358.836,253.816-373.418,253.816-377.001"/>
	<rect x="260.895" y="-382.69" clip-path="url(#SVGID_8_)" fill="#396F8E" width="2.109" height="29.542"/>
	<polygon clip-path="url(#SVGID_8_)" fill="#396F8E" points="266.715,-382.649 284.877,-382.649 284.877,-380.793 276.869,-380.793 
		276.787,-353.147 274.639,-353.147 274.721,-380.793 266.715,-380.793 	"/>
	<rect x="288.713" y="-382.69" clip-path="url(#SVGID_8_)" fill="#396F8E" width="2.105" height="29.542"/>
	<path clip-path="url(#SVGID_8_)" fill="#396F8E" d="M304.094-352.809l-6.783-5.985c-1.266-1.138-1.604-2.234-1.604-3.834v-20.062
		h2.148v20.104c0,1.096,0,1.347,0.842,2.148l5.857,5.227l5.861-5.227c0.803-0.801,0.803-1.052,0.803-2.148v-20.105h2.146v20.062
		c0,1.601-0.334,2.697-1.602,3.834l-6.785,5.985H304.094z"/>
	<path clip-path="url(#SVGID_8_)" fill="#396F8E" d="M335.402-377.254h0.047v24.106h-2.107v-11.546h-13.656v11.546h-2.109v-24.106
		c0-1.939,1.055-3.414,2.613-4.341c3.076-1.854,9.57-1.854,12.604,0C334.352-380.668,335.402-379.193,335.402-377.254
		 M319.686-377.254v10.452h13.656v-10.452c0-1.096-0.674-1.981-1.645-2.571c-2.4-1.474-8.051-1.432-10.408,0
		C320.318-379.235,319.686-378.35,319.686-377.254"/>
	<path clip-path="url(#SVGID_8_)" fill="#396F8E" d="M236.494,434.547c4.793-6.392,8.75-8.337,8.75-8.337s24.926,1.29,44.828,19.825
		c19.898,18.54,25.801,38.742,25.801,38.742c0.031-0.01-7.691-19.454-37.441-34.318c-30.215-15.099-47.756-5.851-47.756-5.851
		S232.086,440.418,236.494,434.547"/>
	<path clip-path="url(#SVGID_8_)" fill="#396F8E" d="M265.629,406.194c5.053-4.397,9.172-5.05,9.172-5.05
		s20.979,5.604,34.885,26.963c13.902,21.353,14.805,41.981,14.805,41.981c0.035-0.019-2.678-20.201-26.279-39.642
		c-23.969-19.747-42.203-14.762-42.203-14.762S260.65,410.519,265.629,406.194"/>
	<path clip-path="url(#SVGID_8_)" fill="#396F8E" d="M293.729,389.433c7.35-3.721,11.252-3.405,11.252-3.405
		s17.123,7.747,25.914,30.871c8.783,23.121,5.373,43.315,5.373,43.315c0.031-0.006,1.635-20.078-16.764-43.006
		c-18.682-23.287-36.916-20.715-36.916-20.715S287.402,392.642,293.729,389.433"/>
	<path clip-path="url(#SVGID_8_)" fill="#B9C3C8" d="M328.26,378.5c6.199-1.621,11.432,0.234,11.432,0.234
		s14.762,11.339,16.648,34.802c1.877,23.468-6.803,41.726-6.803,41.726c0.037,0,6.994-18.509-3.893-43.726
		c-11.057-25.608-30.088-28.752-30.088-28.752S320.814,380.444,328.26,378.5"/>
	<path clip-path="url(#SVGID_8_)" fill="#B9C3C8" d="M364.387,378.386c6.207,0.57,10.824,3.403,10.824,3.403
		s11.471,16.195,6.188,37.804c-5.277,21.604-18.912,36.157-18.912,36.157c0.027,0.004,12.125-15.157,9.482-40.343
		c-2.68-25.587-18.779-36.784-18.779-36.784S358.557,377.856,364.387,378.386"/>
	<path clip-path="url(#SVGID_8_)" fill="#B9C3C8" d="M396.457,388.36c6.594,2.867,10.006,7.313,10.006,7.313
		s6.256,15.65-4.533,34.544c-10.797,18.887-27.773,29.15-27.773,29.15c0.033,0.019,15.688-11.197,19.789-35.351
		c4.176-24.546-7.863-38.815-7.863-38.815S390.486,385.763,396.457,388.36"/>
	<path clip-path="url(#SVGID_8_)" fill="#B9C3C8" d="M427.879,413c4.6,4.769,5.541,9.639,5.541,9.639s1.721,13.262-14.273,27.088
		c-15.992,13.836-35.262,18.01-35.262,18.01c0.02,0.023,18.326-5.403,29.545-26.023c11.398-20.948,3.941-37.61,3.941-37.61
		C417.352,404.125,423.816,408.79,427.879,413"/>
	<path clip-path="url(#SVGID_8_)" fill="#396F8E" d="M422.082,532.544c-5.906,4.021-8.729,3.688-8.729,3.688
		s-2.209,0.197-13.203-7.98c-10.992-8.184-15.221-19.395-15.221-19.395c-0.02,0.019,5.115,9.683,20.643,15.097
		c15.783,5.498,22.84,0.635,22.84,0.635C428.398,524.601,427.514,528.849,422.082,532.544"/>
	<path clip-path="url(#SVGID_8_)" fill="#396F8E" d="M443.652,443.535c1.348,4.868,0.619,10.926,0.619,10.926
		s-3.041,9.954-21.123,18.347c-18.092,8.394-34.301,6.802-34.301,6.802c0.012,0.03,16.055,0.168,33.633-15.938
		c17.844-16.372,16.078-31.445,16.078-31.445S442.006,437.6,443.652,443.535"/>
	<path clip-path="url(#SVGID_8_)" fill="#396F8E" d="M446.533,475.757c0.295,5.253-2.016,10.271-2.016,10.271
		s-2.813,7.784-21.381,10.539c-18.574,2.74-34.141-3.271-34.141-3.271c0.004,0.03,15.586,4.648,34.572-5.422
		c19.297-10.235,21.496-25.032,21.496-25.032S446.242,470.615,446.533,475.757"/>
	<path clip-path="url(#SVGID_8_)" fill="#396F8E" d="M440.768,509.518c-4.207,7.423-7.389,8.508-7.389,8.508
		s-2.254,1.354-18.256-1.941c-16-3.289-26.365-13.368-26.365-13.368c0,0.023,10.516,7.954,29.916,5.892
		c19.703-2.097,24.697-11.035,24.697-11.035C443.365,497.588,444.639,502.686,440.768,509.518"/>
	<path clip-path="url(#SVGID_8_)" fill="#396F8E" d="M398.486,543.893c-5.844,0.621-7.848-0.675-7.848-0.675
		s-1.729-0.692-7.15-10.64c-5.428-9.942-4.701-19.488-4.701-19.488c-0.014,0.004,0.475,8.793,10.275,18.483
		c9.955,9.854,16.949,9.063,16.949,9.063C405.998,540.637,403.857,543.32,398.486,543.893"/>
	
		<line clip-path="url(#SVGID_8_)" fill="none" stroke="#396F8E" stroke-miterlimit="10" x1="28.858" y1="488.001" x2="28.858" y2="535.121"/>
	<path clip-path="url(#SVGID_8_)" fill="#396F8E" d="M19.064,530.9c0,2.991-2.756,5.415-6.162,5.415h-46.737
		c-3.404,0-6.167-2.424-6.167-5.415v-39.938c0-2.989,2.763-5.413,6.167-5.413h46.737c3.406,0,6.162,2.424,6.162,5.413V530.9z"/>
	<polygon clip-path="url(#SVGID_8_)" fill="#FFFFFF" points="-13.386,496.375 -10.498,496.375 -10.498,525.501 -12.875,525.501 
		-12.875,502.16 -12.548,499.206 -12.69,499.206 -13.667,501.993 -22.327,518.512 -24.237,518.512 -32.898,501.993 -33.878,499.206 
		-34.014,499.206 -33.689,502.16 -33.689,525.501 -36.065,525.501 -36.065,496.375 -33.177,496.375 -23.303,515.766 	"/>
	<path clip-path="url(#SVGID_8_)" fill="#FFFFFF" d="M14.358,520.01c0,2.745-2.234,4.453-5.167,5.2
		c-2.513,0.624-6.66,0.624-9.13,0.04c-3.025-0.706-5.401-2.456-5.446-5.197v-18.271c0.044-3.035,2.887-4.826,6.287-5.408
		c2.562-0.412,6.286-0.373,8.707,0.333c2.747,0.833,4.75,2.498,4.75,5.075H12.03c0-1.537-1.351-2.577-3.121-3.12
		c-2.138-0.625-5.352-0.625-7.588-0.247c-2.373,0.416-4.376,1.54-4.376,3.367v18.271c0,1.621,1.628,2.702,3.724,3.202
		c2.188,0.5,5.678,0.5,7.871-0.04c2.003-0.503,3.491-1.583,3.491-3.162L14.358,520.01z"/>
	<path clip-path="url(#SVGID_8_)" fill="#112F40" d="M43.732,521.5c0.04,2.614,2.572,3.918,4.847,4.34
		c2.23,0.424,5.355,0.424,7.546-0.294c1.936-0.675,3.411-1.943,3.411-4.046h0.675c0,2.359-1.601,3.874-3.922,4.636
		c-2.191,0.717-5.563,0.759-7.836,0.336c-2.615-0.508-5.311-2.024-5.35-4.972v-0.381v-18.629v-0.337
		c0.039-2.99,2.734-4.509,5.35-5.017c2.274-0.42,5.645-0.38,7.836,0.34c2.321,0.802,3.922,2.315,3.922,4.677h-0.675
		c0-2.151-1.475-3.411-3.411-4.05c-2.191-0.71-5.316-0.757-7.546-0.332c-2.274,0.421-4.807,1.768-4.847,4.382V521.5z"/>
	<path clip-path="url(#SVGID_8_)" fill="#112F40" d="M64.296,501.899c0-7.035,17.113-7.035,17.113,0v19.767
		c0,6.998-17.113,6.998-17.113,0V501.899z M80.692,501.899c0-3.202-3.961-4.634-7.927-4.634c-3.875,0.043-7.794,1.478-7.794,4.634
		v19.728c0,3.202,3.918,4.591,7.794,4.638c3.966,0,7.927-1.393,7.927-4.638V501.899z"/>
	<polygon clip-path="url(#SVGID_8_)" fill="#112F40" points="102.902,526.515 101.765,526.515 86.335,497.394 86.335,526.515 
		85.706,526.515 85.706,496.972 86.8,496.972 102.226,526.05 102.226,496.972 102.902,496.972 	"/>
	<path clip-path="url(#SVGID_8_)" fill="#112F40" d="M106.69,521.12c0,2.109,1.307,3.836,3.411,4.51
		c2.912,1.011,7.039,0.804,9.441-1.223c2.53-2.108,3.165-6.701,1.143-9.44c-1.228-1.687-3.458-2.486-5.985-3.118
		c-3.122-0.762-6.829-1.476-7.97-4.972c-0.798-2.571-0.376-6.07,1.606-7.927c2.486-2.273,6.194-2.655,9.271-1.603
		c2.144,0.718,3.918,2.237,3.918,4.679h-0.676c0-2.146-1.559-3.453-3.452-4.087c-2.868-0.967-6.363-0.674-8.601,1.474
		c-1.728,1.646-2.191,4.85-1.434,7.125c1.055,3.289,4.472,3.919,7.378,4.677c2.781,0.716,5.185,1.475,6.534,3.329
		c2.193,2.994,1.433,8.05-1.305,10.368c-2.616,2.148-6.917,2.404-10.075,1.353c-2.404-0.802-3.879-2.742-3.879-5.145H106.69z"/>
	<path clip-path="url(#SVGID_8_)" fill="#112F40" d="M128.183,525.25c-1.518-0.93-2.403-2.318-2.403-4.087v-24.151h0.631v24.151
		c0,1.557,0.8,2.737,2.107,3.539c1.35,0.844,3.58,1.262,5.857,1.262c2.36,0.045,4.722-0.377,6.154-1.262
		c1.307-0.802,2.109-1.982,2.109-3.539v-24.151h0.631v24.151c0,1.769-0.885,3.157-2.401,4.087c-1.561,0.925-4.089,1.39-6.576,1.348
		C131.932,526.558,129.612,526.136,128.183,525.25"/>
	<path clip-path="url(#SVGID_8_)" fill="#112F40" d="M148.242,521.207c0,3.456,3.12,4.676,5.987,4.676h6.781v0.633h-6.781
		c-3.164,0-6.661-1.391-6.661-5.229v-24.314h0.631L148.242,521.207z"/>
	<polygon clip-path="url(#SVGID_8_)" fill="#112F40" points="180.943,497.012 180.943,497.688 172.389,497.688 172.389,526.515 
		171.715,526.515 171.715,497.688 163.156,497.688 163.156,497.012 	"/>
	<path clip-path="url(#SVGID_8_)" fill="#112F40" d="M184.061,526.511v-24.524c0-1.771,0.926-3.037,2.404-3.922
		c2.951-1.772,9.439-1.772,12.393,0c1.473,0.885,2.398,2.151,2.398,3.922v24.524h-0.676v-12.136h-0.756h-14.371h-0.76v0.758v11.378
		H184.061z M184.693,513.746h0.76h14.371h0.756v-11.759c0.045-1.477-0.84-2.614-2.063-3.371c-2.781-1.688-8.977-1.688-11.756,0
		c-1.227,0.757-2.068,1.895-2.068,3.371V513.746z"/>
	<path clip-path="url(#SVGID_8_)" fill="#396F8E" d="M240.143,502.409h0.045v24.106h-2.109v-11.549h-13.654v11.549h-2.109v-24.106
		c0-1.939,1.055-3.419,2.613-4.344c3.076-1.855,9.568-1.855,12.604,0C239.092,498.99,240.143,500.469,240.143,502.409
		 M224.424,502.409v10.452h13.654v-10.452c0-1.099-0.672-1.983-1.645-2.573c-2.4-1.475-8.049-1.434-10.41,0
		C225.053,500.425,224.424,501.31,224.424,502.409"/>
	<path clip-path="url(#SVGID_8_)" fill="#396F8E" d="M253.924,524.663c1.938,0,3.873-0.215,5.01-0.931
		c1.014-0.59,1.645-1.559,1.645-2.739v-23.98h2.111v23.98c0,1.939-1.014,3.455-2.658,4.47c-1.434,0.883-3.748,1.345-6.066,1.306
		h-0.422c-2.32,0.039-4.637-0.423-6.07-1.306c-1.643-1.015-2.652-2.53-2.652-4.47v-23.98h2.105v23.98
		c0,1.181,0.633,2.067,1.643,2.659c1.057,0.669,2.867,1.011,4.719,1.011H253.924z"/>
	<path clip-path="url(#SVGID_8_)" fill="#396F8E" d="M267.027,526.515v-29.543h10.24c3.412,0,7.672,1.725,7.672,5.688v18.123
		c0,4.046-4.342,5.732-7.967,5.732H267.027z M282.787,502.66c0-2.531-3.371-3.581-5.561-3.581h-0.168h-0.047h-7.838v25.287h7.799
		c1.982,0,4.973-0.675,5.65-2.7C282.916,520.824,282.787,506.241,282.787,502.66"/>
	<rect x="289.867" y="496.972" clip-path="url(#SVGID_8_)" fill="#396F8E" width="2.107" height="29.543"/>
	<polygon clip-path="url(#SVGID_8_)" fill="#396F8E" points="295.684,497.012 313.846,497.012 313.846,498.869 305.838,498.869 
		305.756,526.515 303.605,526.515 303.691,498.869 295.684,498.869 	"/>
	<rect x="317.68" y="496.972" clip-path="url(#SVGID_8_)" fill="#396F8E" width="2.105" height="29.543"/>
	<path clip-path="url(#SVGID_8_)" fill="#396F8E" d="M333.063,526.853l-6.785-5.986c-1.264-1.139-1.602-2.235-1.602-3.836v-20.059
		h2.148v20.101c0,1.098,0,1.351,0.844,2.149l5.859,5.226l5.859-5.226c0.799-0.799,0.799-1.052,0.799-2.149v-20.101h2.148v20.059
		c0,1.601-0.336,2.697-1.6,3.836l-6.787,5.986H333.063z"/>
	<path clip-path="url(#SVGID_8_)" fill="#396F8E" d="M364.371,502.409h0.047v24.104h-2.109v-11.547h-13.654v11.549h-2.107v-24.106
		c0-1.939,1.053-3.419,2.613-4.344c3.076-1.855,9.568-1.855,12.604,0C363.32,498.99,364.371,500.469,364.371,502.409
		 M348.654,502.409v10.452h13.654v-10.452c0-1.099-0.672-1.983-1.643-2.573c-2.4-1.475-8.049-1.434-10.41,0
		C349.285,500.425,348.654,501.31,348.654,502.409"/>
</g>
</svg>
